M48
; DRILL file {KiCad (6.0.1-0)} date Dienstag, 18. Januar 2022 um 10:49:35
; FORMAT={-:-/ absolute / inch / decimal}
; #@! TF.CreationDate,2022-01-18T10:49:35+01:00
; #@! TF.GenerationSoftware,Kicad,Pcbnew,(6.0.1-0)
; #@! TF.FileFunction,Plated,1,2,PTH
FMAT,2
INCH
; #@! TA.AperFunction,Plated,PTH,ViaDrill
T1C0.0130
; #@! TA.AperFunction,Plated,PTH,ComponentDrill
T2C0.0315
; #@! TA.AperFunction,Plated,PTH,ComponentDrill
T3C0.0512
; #@! TA.AperFunction,Plated,PTH,ComponentDrill
T4C0.0630
%
G90
G05
T1
X3.0281Y-3.817
X3.0281Y-4.307
X3.0281Y-4.427
X3.0281Y-4.547
X3.0281Y-4.677
X3.0281Y-4.817
X3.0281Y-4.967
X3.0281Y-5.117
X3.1581Y-3.817
X3.1981Y-4.817
X3.1981Y-4.967
X3.2681Y-4.267
X3.2681Y-4.357
X3.2781Y-3.597
X3.2781Y-3.707
X3.2781Y-3.817
X3.3481Y-4.127
X3.3481Y-4.197
X3.3481Y-4.267
X3.3581Y-4.557
X3.3581Y-4.617
X3.3581Y-4.677
X3.3881Y-3.597
X3.4181Y-4.387
X3.4681Y-4.337
X3.4681Y-4.387
X3.4681Y-5.387
X3.5081Y-3.597
X3.5181Y-4.387
X3.5581Y-5.387
X3.5681Y-4.127
X3.5681Y-4.437
X3.5681Y-4.617
X3.5681Y-4.677
X3.6281Y-3.597
X3.6281Y-3.707
X3.6281Y-3.817
X3.6481Y-4.297
X3.6481Y-5.387
X3.7081Y-4.297
X3.7081Y-4.357
X3.7081Y-4.417
X3.7381Y-3.707
X3.7581Y-4.687
X3.7581Y-5.387
X3.7681Y-4.357
X3.7681Y-4.417
X3.7781Y-4.127
X3.7781Y-4.197
X3.8081Y-4.767
X3.8181Y-5.087
X3.8581Y-4.267
X3.8581Y-5.387
X3.8681Y-4.817
X3.9381Y-4.457
X3.9381Y-4.517
X3.9381Y-4.577
X3.9381Y-4.647
X3.9581Y-4.267
X3.9681Y-5.387
X4.0581Y-4.997
X4.0581Y-5.087
X4.1281Y-4.647
X4.1281Y-4.707
X4.1581Y-4.997
X4.1581Y-5.087
X4.2081Y-4.347
X4.2081Y-4.647
X4.2081Y-4.767
X4.2581Y-4.997
X4.2581Y-5.087
X4.2581Y-5.197
X4.2581Y-5.377
X4.2881Y-4.427
X4.3181Y-4.527
X4.3681Y-4.347
X4.3681Y-4.507
X4.3681Y-4.647
X4.3681Y-4.767
X4.3681Y-4.887
X4.3881Y-3.587
X4.3881Y-3.907
X4.4981Y-3.587
X4.5281Y-4.347
X4.5481Y-5.177
X4.5481Y-5.277
X4.5481Y-5.377
X4.5881Y-4.587
X4.5981Y-4.647
X4.6181Y-3.587
X4.6181Y-4.037
X4.6481Y-4.697
X4.6581Y-5.177
X4.6581Y-5.277
X4.6581Y-5.377
X4.6981Y-4.647
X4.6981Y-4.747
X4.7381Y-3.587
X4.7381Y-3.697
X4.7381Y-3.797
X4.7381Y-3.907
X4.7381Y-4.037
X4.7681Y-5.177
X4.7681Y-5.277
X4.7681Y-5.377
X4.8381Y-4.647
X4.8381Y-4.877
X4.8581Y-3.797
X4.8581Y-3.907
X4.8781Y-5.177
X4.8781Y-5.277
X4.8781Y-5.377
X4.9081Y-4.877
X4.9281Y-4.647
X4.9581Y-4.827
X4.9781Y-3.797
X4.9981Y-4.777
X4.9981Y-5.067
X4.9981Y-5.177
X4.9981Y-5.277
X4.9981Y-5.377
T2
X4.2081Y-3.747
X4.3065Y-3.747
T3
X4.1281Y-3.407
X4.7281Y-3.407
T4
X3.2981Y-3.407
X3.8981Y-3.407
T0
M30
