%TF.GenerationSoftware,KiCad,Pcbnew,(6.0.1-0)*%
%TF.CreationDate,2022-01-18T10:49:35+01:00*%
%TF.ProjectId,pwm_driver,70776d5f-6472-4697-9665-722e6b696361,1*%
%TF.SameCoordinates,Original*%
%TF.FileFunction,Paste,Top*%
%TF.FilePolarity,Positive*%
%FSLAX46Y46*%
G04 Gerber Fmt 4.6, Leading zero omitted, Abs format (unit mm)*
G04 Created by KiCad (PCBNEW (6.0.1-0)) date 2022-01-18 10:49:35*
%MOMM*%
%LPD*%
G01*
G04 APERTURE LIST*
G04 Aperture macros list*
%AMRoundRect*
0 Rectangle with rounded corners*
0 $1 Rounding radius*
0 $2 $3 $4 $5 $6 $7 $8 $9 X,Y pos of 4 corners*
0 Add a 4 corners polygon primitive as box body*
4,1,4,$2,$3,$4,$5,$6,$7,$8,$9,$2,$3,0*
0 Add four circle primitives for the rounded corners*
1,1,$1+$1,$2,$3*
1,1,$1+$1,$4,$5*
1,1,$1+$1,$6,$7*
1,1,$1+$1,$8,$9*
0 Add four rect primitives between the rounded corners*
20,1,$1+$1,$2,$3,$4,$5,0*
20,1,$1+$1,$4,$5,$6,$7,0*
20,1,$1+$1,$6,$7,$8,$9,0*
20,1,$1+$1,$8,$9,$2,$3,0*%
G04 Aperture macros list end*
%ADD10RoundRect,0.250000X-0.625000X0.400000X-0.625000X-0.400000X0.625000X-0.400000X0.625000X0.400000X0*%
%ADD11RoundRect,0.250000X0.650000X-0.412500X0.650000X0.412500X-0.650000X0.412500X-0.650000X-0.412500X0*%
%ADD12RoundRect,0.150000X-0.587500X-0.150000X0.587500X-0.150000X0.587500X0.150000X-0.587500X0.150000X0*%
%ADD13RoundRect,0.250000X-0.650000X0.412500X-0.650000X-0.412500X0.650000X-0.412500X0.650000X0.412500X0*%
%ADD14RoundRect,0.250000X0.400000X0.625000X-0.400000X0.625000X-0.400000X-0.625000X0.400000X-0.625000X0*%
%ADD15RoundRect,0.250000X-0.412500X-0.650000X0.412500X-0.650000X0.412500X0.650000X-0.412500X0.650000X0*%
%ADD16RoundRect,0.250000X-0.400000X-0.625000X0.400000X-0.625000X0.400000X0.625000X-0.400000X0.625000X0*%
%ADD17R,10.000000X5.000000*%
%ADD18R,5.000000X10.000000*%
%ADD19R,1.000000X2.510000*%
%ADD20RoundRect,0.150000X-0.825000X-0.150000X0.825000X-0.150000X0.825000X0.150000X-0.825000X0.150000X0*%
%ADD21RoundRect,0.250000X0.412500X0.650000X-0.412500X0.650000X-0.412500X-0.650000X0.412500X-0.650000X0*%
%ADD22R,2.000000X1.500000*%
%ADD23R,2.000000X3.800000*%
%ADD24RoundRect,0.250000X0.625000X-0.400000X0.625000X0.400000X-0.625000X0.400000X-0.625000X-0.400000X0*%
G04 APERTURE END LIST*
D10*
%TO.C,R6*%
X97488000Y-110642000D03*
X97488000Y-113742000D03*
%TD*%
D11*
%TO.C,C6*%
X127271000Y-118453500D03*
X127271000Y-115328500D03*
%TD*%
D10*
%TO.C,R2*%
X98504000Y-103022000D03*
X98504000Y-106122000D03*
%TD*%
D11*
%TO.C,C7*%
X123461000Y-110325500D03*
X123461000Y-107200500D03*
%TD*%
D12*
%TO.C,Q2*%
X93506500Y-128260000D03*
X93506500Y-130160000D03*
X95381500Y-129210000D03*
%TD*%
D13*
%TO.C,C1*%
X82502000Y-103009500D03*
X82502000Y-106134500D03*
%TD*%
D14*
%TO.C,R8*%
X85322000Y-129464000D03*
X82222000Y-129464000D03*
%TD*%
D15*
%TO.C,C8*%
X125708500Y-111811000D03*
X128833500Y-111811000D03*
%TD*%
D16*
%TO.C,R4*%
X121338000Y-120955000D03*
X124438000Y-120955000D03*
%TD*%
D12*
%TO.C,Q1*%
X98582500Y-129276000D03*
X98582500Y-131176000D03*
X100457500Y-130226000D03*
%TD*%
D17*
%TO.C,J3*%
X108664000Y-105080000D03*
%TD*%
D10*
%TO.C,R7*%
X93424000Y-118770000D03*
X93424000Y-121870000D03*
%TD*%
D15*
%TO.C,C10*%
X104815500Y-114986000D03*
X107940500Y-114986000D03*
%TD*%
D13*
%TO.C,C3*%
X93424000Y-103009500D03*
X93424000Y-106134500D03*
%TD*%
D18*
%TO.C,J2*%
X125936000Y-89586000D03*
%TD*%
%TO.C,J1*%
X77676000Y-89332000D03*
%TD*%
D17*
%TO.C,J4*%
X80724000Y-135306000D03*
%TD*%
D10*
%TO.C,R1*%
X95202000Y-97180000D03*
X95202000Y-100280000D03*
%TD*%
D19*
%TO.C,RV1*%
X82502000Y-116641000D03*
X85042000Y-113331000D03*
X87582000Y-116641000D03*
%TD*%
D20*
%TO.C,U1*%
X118446000Y-112192000D03*
X118446000Y-113462000D03*
X118446000Y-114732000D03*
X118446000Y-116002000D03*
X123396000Y-116002000D03*
X123396000Y-114732000D03*
X123396000Y-113462000D03*
X123396000Y-112192000D03*
%TD*%
D13*
%TO.C,C2*%
X87836000Y-103009500D03*
X87836000Y-106134500D03*
%TD*%
D21*
%TO.C,C11*%
X95240500Y-114732000D03*
X92115500Y-114732000D03*
%TD*%
D22*
%TO.C,Q3*%
X105260000Y-131990000D03*
X105260000Y-134290000D03*
D23*
X111560000Y-134290000D03*
D22*
X105260000Y-136590000D03*
%TD*%
D21*
%TO.C,C5*%
X98542500Y-92126000D03*
X95417500Y-92126000D03*
%TD*%
D20*
%TO.C,U2*%
X97591500Y-115621000D03*
X97591500Y-116891000D03*
X97591500Y-118161000D03*
X97591500Y-119431000D03*
X102541500Y-119431000D03*
X102541500Y-118161000D03*
X102541500Y-116891000D03*
X102541500Y-115621000D03*
%TD*%
D16*
%TO.C,R5*%
X121338000Y-126289000D03*
X124438000Y-126289000D03*
%TD*%
D24*
%TO.C,R3*%
X114317000Y-115647000D03*
X114317000Y-112547000D03*
%TD*%
D11*
%TO.C,C9*%
X102606500Y-113754500D03*
X102606500Y-110629500D03*
%TD*%
M02*
