%TF.GenerationSoftware,KiCad,Pcbnew,(6.0.1-0)*%
%TF.CreationDate,2022-01-18T10:49:35+01:00*%
%TF.ProjectId,pwm_driver,70776d5f-6472-4697-9665-722e6b696361,1*%
%TF.SameCoordinates,Original*%
%TF.FileFunction,Legend,Top*%
%TF.FilePolarity,Positive*%
%FSLAX46Y46*%
G04 Gerber Fmt 4.6, Leading zero omitted, Abs format (unit mm)*
G04 Created by KiCad (PCBNEW (6.0.1-0)) date 2022-01-18 10:49:35*
%MOMM*%
%LPD*%
G01*
G04 APERTURE LIST*
%ADD10C,0.150000*%
%ADD11C,0.120000*%
G04 APERTURE END LIST*
D10*
%TO.C,MK1*%
X86385476Y-92899380D02*
X86385476Y-91899380D01*
X86718809Y-92613666D01*
X87052142Y-91899380D01*
X87052142Y-92899380D01*
X87528333Y-92899380D02*
X87528333Y-91899380D01*
X88099761Y-92899380D02*
X87671190Y-92327952D01*
X88099761Y-91899380D02*
X87528333Y-92470809D01*
X89052142Y-92899380D02*
X88480714Y-92899380D01*
X88766428Y-92899380D02*
X88766428Y-91899380D01*
X88671190Y-92042238D01*
X88575952Y-92137476D01*
X88480714Y-92185095D01*
%TO.C,MK2*%
X114385476Y-93249380D02*
X114385476Y-92249380D01*
X114718809Y-92963666D01*
X115052142Y-92249380D01*
X115052142Y-93249380D01*
X115528333Y-93249380D02*
X115528333Y-92249380D01*
X116099761Y-93249380D02*
X115671190Y-92677952D01*
X116099761Y-92249380D02*
X115528333Y-92820809D01*
X116480714Y-92344619D02*
X116528333Y-92297000D01*
X116623571Y-92249380D01*
X116861666Y-92249380D01*
X116956904Y-92297000D01*
X117004523Y-92344619D01*
X117052142Y-92439857D01*
X117052142Y-92535095D01*
X117004523Y-92677952D01*
X116433095Y-93249380D01*
X117052142Y-93249380D01*
%TO.C,MK3*%
X86385476Y-121249380D02*
X86385476Y-120249380D01*
X86718809Y-120963666D01*
X87052142Y-120249380D01*
X87052142Y-121249380D01*
X87528333Y-121249380D02*
X87528333Y-120249380D01*
X88099761Y-121249380D02*
X87671190Y-120677952D01*
X88099761Y-120249380D02*
X87528333Y-120820809D01*
X88433095Y-120249380D02*
X89052142Y-120249380D01*
X88718809Y-120630333D01*
X88861666Y-120630333D01*
X88956904Y-120677952D01*
X89004523Y-120725571D01*
X89052142Y-120820809D01*
X89052142Y-121058904D01*
X89004523Y-121154142D01*
X88956904Y-121201761D01*
X88861666Y-121249380D01*
X88575952Y-121249380D01*
X88480714Y-121201761D01*
X88433095Y-121154142D01*
%TO.C,MK4*%
X126388476Y-125694380D02*
X126388476Y-124694380D01*
X126721809Y-125408666D01*
X127055142Y-124694380D01*
X127055142Y-125694380D01*
X127531333Y-125694380D02*
X127531333Y-124694380D01*
X128102761Y-125694380D02*
X127674190Y-125122952D01*
X128102761Y-124694380D02*
X127531333Y-125265809D01*
X128959904Y-125027714D02*
X128959904Y-125694380D01*
X128721809Y-124646761D02*
X128483714Y-125361047D01*
X129102761Y-125361047D01*
%TO.C,R6*%
X99760380Y-112358666D02*
X99284190Y-112692000D01*
X99760380Y-112930095D02*
X98760380Y-112930095D01*
X98760380Y-112549142D01*
X98808000Y-112453904D01*
X98855619Y-112406285D01*
X98950857Y-112358666D01*
X99093714Y-112358666D01*
X99188952Y-112406285D01*
X99236571Y-112453904D01*
X99284190Y-112549142D01*
X99284190Y-112930095D01*
X98760380Y-111501523D02*
X98760380Y-111692000D01*
X98808000Y-111787238D01*
X98855619Y-111834857D01*
X98998476Y-111930095D01*
X99188952Y-111977714D01*
X99569904Y-111977714D01*
X99665142Y-111930095D01*
X99712761Y-111882476D01*
X99760380Y-111787238D01*
X99760380Y-111596761D01*
X99712761Y-111501523D01*
X99665142Y-111453904D01*
X99569904Y-111406285D01*
X99331809Y-111406285D01*
X99236571Y-111453904D01*
X99188952Y-111501523D01*
X99141333Y-111596761D01*
X99141333Y-111787238D01*
X99188952Y-111882476D01*
X99236571Y-111930095D01*
X99331809Y-111977714D01*
%TO.C,C6*%
X125778142Y-117057666D02*
X125825761Y-117105285D01*
X125873380Y-117248142D01*
X125873380Y-117343380D01*
X125825761Y-117486238D01*
X125730523Y-117581476D01*
X125635285Y-117629095D01*
X125444809Y-117676714D01*
X125301952Y-117676714D01*
X125111476Y-117629095D01*
X125016238Y-117581476D01*
X124921000Y-117486238D01*
X124873380Y-117343380D01*
X124873380Y-117248142D01*
X124921000Y-117105285D01*
X124968619Y-117057666D01*
X124873380Y-116200523D02*
X124873380Y-116391000D01*
X124921000Y-116486238D01*
X124968619Y-116533857D01*
X125111476Y-116629095D01*
X125301952Y-116676714D01*
X125682904Y-116676714D01*
X125778142Y-116629095D01*
X125825761Y-116581476D01*
X125873380Y-116486238D01*
X125873380Y-116295761D01*
X125825761Y-116200523D01*
X125778142Y-116152904D01*
X125682904Y-116105285D01*
X125444809Y-116105285D01*
X125349571Y-116152904D01*
X125301952Y-116200523D01*
X125254333Y-116295761D01*
X125254333Y-116486238D01*
X125301952Y-116581476D01*
X125349571Y-116629095D01*
X125444809Y-116676714D01*
%TO.C,R2*%
X100776380Y-104738666D02*
X100300190Y-105072000D01*
X100776380Y-105310095D02*
X99776380Y-105310095D01*
X99776380Y-104929142D01*
X99824000Y-104833904D01*
X99871619Y-104786285D01*
X99966857Y-104738666D01*
X100109714Y-104738666D01*
X100204952Y-104786285D01*
X100252571Y-104833904D01*
X100300190Y-104929142D01*
X100300190Y-105310095D01*
X99871619Y-104357714D02*
X99824000Y-104310095D01*
X99776380Y-104214857D01*
X99776380Y-103976761D01*
X99824000Y-103881523D01*
X99871619Y-103833904D01*
X99966857Y-103786285D01*
X100062095Y-103786285D01*
X100204952Y-103833904D01*
X100776380Y-104405333D01*
X100776380Y-103786285D01*
%TO.C,C7*%
X121968142Y-108929666D02*
X122015761Y-108977285D01*
X122063380Y-109120142D01*
X122063380Y-109215380D01*
X122015761Y-109358238D01*
X121920523Y-109453476D01*
X121825285Y-109501095D01*
X121634809Y-109548714D01*
X121491952Y-109548714D01*
X121301476Y-109501095D01*
X121206238Y-109453476D01*
X121111000Y-109358238D01*
X121063380Y-109215380D01*
X121063380Y-109120142D01*
X121111000Y-108977285D01*
X121158619Y-108929666D01*
X121063380Y-108596333D02*
X121063380Y-107929666D01*
X122063380Y-108358238D01*
%TO.C,TP2*%
X99274095Y-96534380D02*
X99845523Y-96534380D01*
X99559809Y-97534380D02*
X99559809Y-96534380D01*
X100178857Y-97534380D02*
X100178857Y-96534380D01*
X100559809Y-96534380D01*
X100655047Y-96582000D01*
X100702666Y-96629619D01*
X100750285Y-96724857D01*
X100750285Y-96867714D01*
X100702666Y-96962952D01*
X100655047Y-97010571D01*
X100559809Y-97058190D01*
X100178857Y-97058190D01*
X101131238Y-96629619D02*
X101178857Y-96582000D01*
X101274095Y-96534380D01*
X101512190Y-96534380D01*
X101607428Y-96582000D01*
X101655047Y-96629619D01*
X101702666Y-96724857D01*
X101702666Y-96820095D01*
X101655047Y-96962952D01*
X101083619Y-97534380D01*
X101702666Y-97534380D01*
%TO.C,Q2*%
X94348761Y-127357619D02*
X94253523Y-127310000D01*
X94158285Y-127214761D01*
X94015428Y-127071904D01*
X93920190Y-127024285D01*
X93824952Y-127024285D01*
X93872571Y-127262380D02*
X93777333Y-127214761D01*
X93682095Y-127119523D01*
X93634476Y-126929047D01*
X93634476Y-126595714D01*
X93682095Y-126405238D01*
X93777333Y-126310000D01*
X93872571Y-126262380D01*
X94063047Y-126262380D01*
X94158285Y-126310000D01*
X94253523Y-126405238D01*
X94301142Y-126595714D01*
X94301142Y-126929047D01*
X94253523Y-127119523D01*
X94158285Y-127214761D01*
X94063047Y-127262380D01*
X93872571Y-127262380D01*
X94682095Y-126357619D02*
X94729714Y-126310000D01*
X94824952Y-126262380D01*
X95063047Y-126262380D01*
X95158285Y-126310000D01*
X95205904Y-126357619D01*
X95253523Y-126452857D01*
X95253523Y-126548095D01*
X95205904Y-126690952D01*
X94634476Y-127262380D01*
X95253523Y-127262380D01*
%TO.C,C1*%
X84709142Y-104738666D02*
X84756761Y-104786285D01*
X84804380Y-104929142D01*
X84804380Y-105024380D01*
X84756761Y-105167238D01*
X84661523Y-105262476D01*
X84566285Y-105310095D01*
X84375809Y-105357714D01*
X84232952Y-105357714D01*
X84042476Y-105310095D01*
X83947238Y-105262476D01*
X83852000Y-105167238D01*
X83804380Y-105024380D01*
X83804380Y-104929142D01*
X83852000Y-104786285D01*
X83899619Y-104738666D01*
X84804380Y-103786285D02*
X84804380Y-104357714D01*
X84804380Y-104072000D02*
X83804380Y-104072000D01*
X83947238Y-104167238D01*
X84042476Y-104262476D01*
X84090095Y-104357714D01*
%TO.C,TP3*%
X99020095Y-122188380D02*
X99591523Y-122188380D01*
X99305809Y-123188380D02*
X99305809Y-122188380D01*
X99924857Y-123188380D02*
X99924857Y-122188380D01*
X100305809Y-122188380D01*
X100401047Y-122236000D01*
X100448666Y-122283619D01*
X100496285Y-122378857D01*
X100496285Y-122521714D01*
X100448666Y-122616952D01*
X100401047Y-122664571D01*
X100305809Y-122712190D01*
X99924857Y-122712190D01*
X100829619Y-122188380D02*
X101448666Y-122188380D01*
X101115333Y-122569333D01*
X101258190Y-122569333D01*
X101353428Y-122616952D01*
X101401047Y-122664571D01*
X101448666Y-122759809D01*
X101448666Y-122997904D01*
X101401047Y-123093142D01*
X101353428Y-123140761D01*
X101258190Y-123188380D01*
X100972476Y-123188380D01*
X100877238Y-123140761D01*
X100829619Y-123093142D01*
%TO.C,C4*%
X107969333Y-91131142D02*
X107921714Y-91178761D01*
X107778857Y-91226380D01*
X107683619Y-91226380D01*
X107540761Y-91178761D01*
X107445523Y-91083523D01*
X107397904Y-90988285D01*
X107350285Y-90797809D01*
X107350285Y-90654952D01*
X107397904Y-90464476D01*
X107445523Y-90369238D01*
X107540761Y-90274000D01*
X107683619Y-90226380D01*
X107778857Y-90226380D01*
X107921714Y-90274000D01*
X107969333Y-90321619D01*
X108826476Y-90559714D02*
X108826476Y-91226380D01*
X108588380Y-90178761D02*
X108350285Y-90893047D01*
X108969333Y-90893047D01*
%TO.C,R8*%
X83605333Y-131736380D02*
X83272000Y-131260190D01*
X83033904Y-131736380D02*
X83033904Y-130736380D01*
X83414857Y-130736380D01*
X83510095Y-130784000D01*
X83557714Y-130831619D01*
X83605333Y-130926857D01*
X83605333Y-131069714D01*
X83557714Y-131164952D01*
X83510095Y-131212571D01*
X83414857Y-131260190D01*
X83033904Y-131260190D01*
X84176761Y-131164952D02*
X84081523Y-131117333D01*
X84033904Y-131069714D01*
X83986285Y-130974476D01*
X83986285Y-130926857D01*
X84033904Y-130831619D01*
X84081523Y-130784000D01*
X84176761Y-130736380D01*
X84367238Y-130736380D01*
X84462476Y-130784000D01*
X84510095Y-130831619D01*
X84557714Y-130926857D01*
X84557714Y-130974476D01*
X84510095Y-131069714D01*
X84462476Y-131117333D01*
X84367238Y-131164952D01*
X84176761Y-131164952D01*
X84081523Y-131212571D01*
X84033904Y-131260190D01*
X83986285Y-131355428D01*
X83986285Y-131545904D01*
X84033904Y-131641142D01*
X84081523Y-131688761D01*
X84176761Y-131736380D01*
X84367238Y-131736380D01*
X84462476Y-131688761D01*
X84510095Y-131641142D01*
X84557714Y-131545904D01*
X84557714Y-131355428D01*
X84510095Y-131260190D01*
X84462476Y-131212571D01*
X84367238Y-131164952D01*
%TO.C,C8*%
X127104333Y-110318142D02*
X127056714Y-110365761D01*
X126913857Y-110413380D01*
X126818619Y-110413380D01*
X126675761Y-110365761D01*
X126580523Y-110270523D01*
X126532904Y-110175285D01*
X126485285Y-109984809D01*
X126485285Y-109841952D01*
X126532904Y-109651476D01*
X126580523Y-109556238D01*
X126675761Y-109461000D01*
X126818619Y-109413380D01*
X126913857Y-109413380D01*
X127056714Y-109461000D01*
X127104333Y-109508619D01*
X127675761Y-109841952D02*
X127580523Y-109794333D01*
X127532904Y-109746714D01*
X127485285Y-109651476D01*
X127485285Y-109603857D01*
X127532904Y-109508619D01*
X127580523Y-109461000D01*
X127675761Y-109413380D01*
X127866238Y-109413380D01*
X127961476Y-109461000D01*
X128009095Y-109508619D01*
X128056714Y-109603857D01*
X128056714Y-109651476D01*
X128009095Y-109746714D01*
X127961476Y-109794333D01*
X127866238Y-109841952D01*
X127675761Y-109841952D01*
X127580523Y-109889571D01*
X127532904Y-109937190D01*
X127485285Y-110032428D01*
X127485285Y-110222904D01*
X127532904Y-110318142D01*
X127580523Y-110365761D01*
X127675761Y-110413380D01*
X127866238Y-110413380D01*
X127961476Y-110365761D01*
X128009095Y-110318142D01*
X128056714Y-110222904D01*
X128056714Y-110032428D01*
X128009095Y-109937190D01*
X127961476Y-109889571D01*
X127866238Y-109841952D01*
%TO.C,R4*%
X122721333Y-119587380D02*
X122388000Y-119111190D01*
X122149904Y-119587380D02*
X122149904Y-118587380D01*
X122530857Y-118587380D01*
X122626095Y-118635000D01*
X122673714Y-118682619D01*
X122721333Y-118777857D01*
X122721333Y-118920714D01*
X122673714Y-119015952D01*
X122626095Y-119063571D01*
X122530857Y-119111190D01*
X122149904Y-119111190D01*
X123578476Y-118920714D02*
X123578476Y-119587380D01*
X123340380Y-118539761D02*
X123102285Y-119254047D01*
X123721333Y-119254047D01*
%TO.C,Q1*%
X99424761Y-128373619D02*
X99329523Y-128326000D01*
X99234285Y-128230761D01*
X99091428Y-128087904D01*
X98996190Y-128040285D01*
X98900952Y-128040285D01*
X98948571Y-128278380D02*
X98853333Y-128230761D01*
X98758095Y-128135523D01*
X98710476Y-127945047D01*
X98710476Y-127611714D01*
X98758095Y-127421238D01*
X98853333Y-127326000D01*
X98948571Y-127278380D01*
X99139047Y-127278380D01*
X99234285Y-127326000D01*
X99329523Y-127421238D01*
X99377142Y-127611714D01*
X99377142Y-127945047D01*
X99329523Y-128135523D01*
X99234285Y-128230761D01*
X99139047Y-128278380D01*
X98948571Y-128278380D01*
X100329523Y-128278380D02*
X99758095Y-128278380D01*
X100043809Y-128278380D02*
X100043809Y-127278380D01*
X99948571Y-127421238D01*
X99853333Y-127516476D01*
X99758095Y-127564095D01*
%TO.C,J3*%
X102020380Y-104905333D02*
X102734666Y-104905333D01*
X102877523Y-104952952D01*
X102972761Y-105048190D01*
X103020380Y-105191047D01*
X103020380Y-105286285D01*
X102020380Y-104524380D02*
X102020380Y-103905333D01*
X102401333Y-104238666D01*
X102401333Y-104095809D01*
X102448952Y-104000571D01*
X102496571Y-103952952D01*
X102591809Y-103905333D01*
X102829904Y-103905333D01*
X102925142Y-103952952D01*
X102972761Y-104000571D01*
X103020380Y-104095809D01*
X103020380Y-104381523D01*
X102972761Y-104476761D01*
X102925142Y-104524380D01*
%TO.C,R7*%
X95696380Y-120486666D02*
X95220190Y-120820000D01*
X95696380Y-121058095D02*
X94696380Y-121058095D01*
X94696380Y-120677142D01*
X94744000Y-120581904D01*
X94791619Y-120534285D01*
X94886857Y-120486666D01*
X95029714Y-120486666D01*
X95124952Y-120534285D01*
X95172571Y-120581904D01*
X95220190Y-120677142D01*
X95220190Y-121058095D01*
X94696380Y-120153333D02*
X94696380Y-119486666D01*
X95696380Y-119915238D01*
%TO.C,C10*%
X105735142Y-113493142D02*
X105687523Y-113540761D01*
X105544666Y-113588380D01*
X105449428Y-113588380D01*
X105306571Y-113540761D01*
X105211333Y-113445523D01*
X105163714Y-113350285D01*
X105116095Y-113159809D01*
X105116095Y-113016952D01*
X105163714Y-112826476D01*
X105211333Y-112731238D01*
X105306571Y-112636000D01*
X105449428Y-112588380D01*
X105544666Y-112588380D01*
X105687523Y-112636000D01*
X105735142Y-112683619D01*
X106687523Y-113588380D02*
X106116095Y-113588380D01*
X106401809Y-113588380D02*
X106401809Y-112588380D01*
X106306571Y-112731238D01*
X106211333Y-112826476D01*
X106116095Y-112874095D01*
X107306571Y-112588380D02*
X107401809Y-112588380D01*
X107497047Y-112636000D01*
X107544666Y-112683619D01*
X107592285Y-112778857D01*
X107639904Y-112969333D01*
X107639904Y-113207428D01*
X107592285Y-113397904D01*
X107544666Y-113493142D01*
X107497047Y-113540761D01*
X107401809Y-113588380D01*
X107306571Y-113588380D01*
X107211333Y-113540761D01*
X107163714Y-113493142D01*
X107116095Y-113397904D01*
X107068476Y-113207428D01*
X107068476Y-112969333D01*
X107116095Y-112778857D01*
X107163714Y-112683619D01*
X107211333Y-112636000D01*
X107306571Y-112588380D01*
%TO.C,C3*%
X95631142Y-104738666D02*
X95678761Y-104786285D01*
X95726380Y-104929142D01*
X95726380Y-105024380D01*
X95678761Y-105167238D01*
X95583523Y-105262476D01*
X95488285Y-105310095D01*
X95297809Y-105357714D01*
X95154952Y-105357714D01*
X94964476Y-105310095D01*
X94869238Y-105262476D01*
X94774000Y-105167238D01*
X94726380Y-105024380D01*
X94726380Y-104929142D01*
X94774000Y-104786285D01*
X94821619Y-104738666D01*
X94726380Y-104405333D02*
X94726380Y-103786285D01*
X95107333Y-104119619D01*
X95107333Y-103976761D01*
X95154952Y-103881523D01*
X95202571Y-103833904D01*
X95297809Y-103786285D01*
X95535904Y-103786285D01*
X95631142Y-103833904D01*
X95678761Y-103881523D01*
X95726380Y-103976761D01*
X95726380Y-104262476D01*
X95678761Y-104357714D01*
X95631142Y-104405333D01*
%TO.C,J2*%
X125856666Y-95134380D02*
X125856666Y-95848666D01*
X125809047Y-95991523D01*
X125713809Y-96086761D01*
X125570952Y-96134380D01*
X125475714Y-96134380D01*
X126285238Y-95229619D02*
X126332857Y-95182000D01*
X126428095Y-95134380D01*
X126666190Y-95134380D01*
X126761428Y-95182000D01*
X126809047Y-95229619D01*
X126856666Y-95324857D01*
X126856666Y-95420095D01*
X126809047Y-95562952D01*
X126237619Y-96134380D01*
X126856666Y-96134380D01*
%TO.C,D2*%
X111735904Y-83220380D02*
X111735904Y-82220380D01*
X111974000Y-82220380D01*
X112116857Y-82268000D01*
X112212095Y-82363238D01*
X112259714Y-82458476D01*
X112307333Y-82648952D01*
X112307333Y-82791809D01*
X112259714Y-82982285D01*
X112212095Y-83077523D01*
X112116857Y-83172761D01*
X111974000Y-83220380D01*
X111735904Y-83220380D01*
X112688285Y-82315619D02*
X112735904Y-82268000D01*
X112831142Y-82220380D01*
X113069238Y-82220380D01*
X113164476Y-82268000D01*
X113212095Y-82315619D01*
X113259714Y-82410857D01*
X113259714Y-82506095D01*
X113212095Y-82648952D01*
X112640666Y-83220380D01*
X113259714Y-83220380D01*
X104592095Y-84690380D02*
X104592095Y-83690380D01*
X105163523Y-84690380D02*
X104734952Y-84118952D01*
X105163523Y-83690380D02*
X104592095Y-84261809D01*
%TO.C,J1*%
X78358666Y-95134380D02*
X78358666Y-95848666D01*
X78311047Y-95991523D01*
X78215809Y-96086761D01*
X78072952Y-96134380D01*
X77977714Y-96134380D01*
X79358666Y-96134380D02*
X78787238Y-96134380D01*
X79072952Y-96134380D02*
X79072952Y-95134380D01*
X78977714Y-95277238D01*
X78882476Y-95372476D01*
X78787238Y-95420095D01*
%TO.C,J4*%
X77850666Y-130948380D02*
X77850666Y-131662666D01*
X77803047Y-131805523D01*
X77707809Y-131900761D01*
X77564952Y-131948380D01*
X77469714Y-131948380D01*
X78755428Y-131281714D02*
X78755428Y-131948380D01*
X78517333Y-130900761D02*
X78279238Y-131615047D01*
X78898285Y-131615047D01*
%TO.C,R1*%
X97474380Y-98896666D02*
X96998190Y-99230000D01*
X97474380Y-99468095D02*
X96474380Y-99468095D01*
X96474380Y-99087142D01*
X96522000Y-98991904D01*
X96569619Y-98944285D01*
X96664857Y-98896666D01*
X96807714Y-98896666D01*
X96902952Y-98944285D01*
X96950571Y-98991904D01*
X96998190Y-99087142D01*
X96998190Y-99468095D01*
X97474380Y-97944285D02*
X97474380Y-98515714D01*
X97474380Y-98230000D02*
X96474380Y-98230000D01*
X96617238Y-98325238D01*
X96712476Y-98420476D01*
X96760095Y-98515714D01*
%TO.C,RV1*%
X80624380Y-115581238D02*
X80148190Y-115914571D01*
X80624380Y-116152666D02*
X79624380Y-116152666D01*
X79624380Y-115771714D01*
X79672000Y-115676476D01*
X79719619Y-115628857D01*
X79814857Y-115581238D01*
X79957714Y-115581238D01*
X80052952Y-115628857D01*
X80100571Y-115676476D01*
X80148190Y-115771714D01*
X80148190Y-116152666D01*
X79624380Y-115295523D02*
X80624380Y-114962190D01*
X79624380Y-114628857D01*
X80624380Y-113771714D02*
X80624380Y-114343142D01*
X80624380Y-114057428D02*
X79624380Y-114057428D01*
X79767238Y-114152666D01*
X79862476Y-114247904D01*
X79910095Y-114343142D01*
%TO.C,U1*%
X120159095Y-110149380D02*
X120159095Y-110958904D01*
X120206714Y-111054142D01*
X120254333Y-111101761D01*
X120349571Y-111149380D01*
X120540047Y-111149380D01*
X120635285Y-111101761D01*
X120682904Y-111054142D01*
X120730523Y-110958904D01*
X120730523Y-110149380D01*
X121730523Y-111149380D02*
X121159095Y-111149380D01*
X121444809Y-111149380D02*
X121444809Y-110149380D01*
X121349571Y-110292238D01*
X121254333Y-110387476D01*
X121159095Y-110435095D01*
%TO.C,C2*%
X90043142Y-104738666D02*
X90090761Y-104786285D01*
X90138380Y-104929142D01*
X90138380Y-105024380D01*
X90090761Y-105167238D01*
X89995523Y-105262476D01*
X89900285Y-105310095D01*
X89709809Y-105357714D01*
X89566952Y-105357714D01*
X89376476Y-105310095D01*
X89281238Y-105262476D01*
X89186000Y-105167238D01*
X89138380Y-105024380D01*
X89138380Y-104929142D01*
X89186000Y-104786285D01*
X89233619Y-104738666D01*
X89233619Y-104357714D02*
X89186000Y-104310095D01*
X89138380Y-104214857D01*
X89138380Y-103976761D01*
X89186000Y-103881523D01*
X89233619Y-103833904D01*
X89328857Y-103786285D01*
X89424095Y-103786285D01*
X89566952Y-103833904D01*
X90138380Y-104405333D01*
X90138380Y-103786285D01*
%TO.C,C11*%
X93035142Y-116939142D02*
X92987523Y-116986761D01*
X92844666Y-117034380D01*
X92749428Y-117034380D01*
X92606571Y-116986761D01*
X92511333Y-116891523D01*
X92463714Y-116796285D01*
X92416095Y-116605809D01*
X92416095Y-116462952D01*
X92463714Y-116272476D01*
X92511333Y-116177238D01*
X92606571Y-116082000D01*
X92749428Y-116034380D01*
X92844666Y-116034380D01*
X92987523Y-116082000D01*
X93035142Y-116129619D01*
X93987523Y-117034380D02*
X93416095Y-117034380D01*
X93701809Y-117034380D02*
X93701809Y-116034380D01*
X93606571Y-116177238D01*
X93511333Y-116272476D01*
X93416095Y-116320095D01*
X94939904Y-117034380D02*
X94368476Y-117034380D01*
X94654190Y-117034380D02*
X94654190Y-116034380D01*
X94558952Y-116177238D01*
X94463714Y-116272476D01*
X94368476Y-116320095D01*
%TO.C,Q3*%
X108314761Y-130337619D02*
X108219523Y-130290000D01*
X108124285Y-130194761D01*
X107981428Y-130051904D01*
X107886190Y-130004285D01*
X107790952Y-130004285D01*
X107838571Y-130242380D02*
X107743333Y-130194761D01*
X107648095Y-130099523D01*
X107600476Y-129909047D01*
X107600476Y-129575714D01*
X107648095Y-129385238D01*
X107743333Y-129290000D01*
X107838571Y-129242380D01*
X108029047Y-129242380D01*
X108124285Y-129290000D01*
X108219523Y-129385238D01*
X108267142Y-129575714D01*
X108267142Y-129909047D01*
X108219523Y-130099523D01*
X108124285Y-130194761D01*
X108029047Y-130242380D01*
X107838571Y-130242380D01*
X108600476Y-129242380D02*
X109219523Y-129242380D01*
X108886190Y-129623333D01*
X109029047Y-129623333D01*
X109124285Y-129670952D01*
X109171904Y-129718571D01*
X109219523Y-129813809D01*
X109219523Y-130051904D01*
X109171904Y-130147142D01*
X109124285Y-130194761D01*
X109029047Y-130242380D01*
X108743333Y-130242380D01*
X108648095Y-130194761D01*
X108600476Y-130147142D01*
%TO.C,C5*%
X96813333Y-94333142D02*
X96765714Y-94380761D01*
X96622857Y-94428380D01*
X96527619Y-94428380D01*
X96384761Y-94380761D01*
X96289523Y-94285523D01*
X96241904Y-94190285D01*
X96194285Y-93999809D01*
X96194285Y-93856952D01*
X96241904Y-93666476D01*
X96289523Y-93571238D01*
X96384761Y-93476000D01*
X96527619Y-93428380D01*
X96622857Y-93428380D01*
X96765714Y-93476000D01*
X96813333Y-93523619D01*
X97718095Y-93428380D02*
X97241904Y-93428380D01*
X97194285Y-93904571D01*
X97241904Y-93856952D01*
X97337142Y-93809333D01*
X97575238Y-93809333D01*
X97670476Y-93856952D01*
X97718095Y-93904571D01*
X97765714Y-93999809D01*
X97765714Y-94237904D01*
X97718095Y-94333142D01*
X97670476Y-94380761D01*
X97575238Y-94428380D01*
X97337142Y-94428380D01*
X97241904Y-94380761D01*
X97194285Y-94333142D01*
%TO.C,TP1*%
X113055095Y-116981380D02*
X113626523Y-116981380D01*
X113340809Y-117981380D02*
X113340809Y-116981380D01*
X113959857Y-117981380D02*
X113959857Y-116981380D01*
X114340809Y-116981380D01*
X114436047Y-117029000D01*
X114483666Y-117076619D01*
X114531285Y-117171857D01*
X114531285Y-117314714D01*
X114483666Y-117409952D01*
X114436047Y-117457571D01*
X114340809Y-117505190D01*
X113959857Y-117505190D01*
X115483666Y-117981380D02*
X114912238Y-117981380D01*
X115197952Y-117981380D02*
X115197952Y-116981380D01*
X115102714Y-117124238D01*
X115007476Y-117219476D01*
X114912238Y-117267095D01*
%TO.C,TP4*%
X89368095Y-106694380D02*
X89939523Y-106694380D01*
X89653809Y-107694380D02*
X89653809Y-106694380D01*
X90272857Y-107694380D02*
X90272857Y-106694380D01*
X90653809Y-106694380D01*
X90749047Y-106742000D01*
X90796666Y-106789619D01*
X90844285Y-106884857D01*
X90844285Y-107027714D01*
X90796666Y-107122952D01*
X90749047Y-107170571D01*
X90653809Y-107218190D01*
X90272857Y-107218190D01*
X91701428Y-107027714D02*
X91701428Y-107694380D01*
X91463333Y-106646761D02*
X91225238Y-107361047D01*
X91844285Y-107361047D01*
%TO.C,U2*%
X99304595Y-113578380D02*
X99304595Y-114387904D01*
X99352214Y-114483142D01*
X99399833Y-114530761D01*
X99495071Y-114578380D01*
X99685547Y-114578380D01*
X99780785Y-114530761D01*
X99828404Y-114483142D01*
X99876023Y-114387904D01*
X99876023Y-113578380D01*
X100304595Y-113673619D02*
X100352214Y-113626000D01*
X100447452Y-113578380D01*
X100685547Y-113578380D01*
X100780785Y-113626000D01*
X100828404Y-113673619D01*
X100876023Y-113768857D01*
X100876023Y-113864095D01*
X100828404Y-114006952D01*
X100256976Y-114578380D01*
X100876023Y-114578380D01*
%TO.C,R5*%
X122721333Y-124921380D02*
X122388000Y-124445190D01*
X122149904Y-124921380D02*
X122149904Y-123921380D01*
X122530857Y-123921380D01*
X122626095Y-123969000D01*
X122673714Y-124016619D01*
X122721333Y-124111857D01*
X122721333Y-124254714D01*
X122673714Y-124349952D01*
X122626095Y-124397571D01*
X122530857Y-124445190D01*
X122149904Y-124445190D01*
X123626095Y-123921380D02*
X123149904Y-123921380D01*
X123102285Y-124397571D01*
X123149904Y-124349952D01*
X123245142Y-124302333D01*
X123483238Y-124302333D01*
X123578476Y-124349952D01*
X123626095Y-124397571D01*
X123673714Y-124492809D01*
X123673714Y-124730904D01*
X123626095Y-124826142D01*
X123578476Y-124873761D01*
X123483238Y-124921380D01*
X123245142Y-124921380D01*
X123149904Y-124873761D01*
X123102285Y-124826142D01*
%TO.C,R3*%
X112949380Y-114263666D02*
X112473190Y-114597000D01*
X112949380Y-114835095D02*
X111949380Y-114835095D01*
X111949380Y-114454142D01*
X111997000Y-114358904D01*
X112044619Y-114311285D01*
X112139857Y-114263666D01*
X112282714Y-114263666D01*
X112377952Y-114311285D01*
X112425571Y-114358904D01*
X112473190Y-114454142D01*
X112473190Y-114835095D01*
X111949380Y-113930333D02*
X111949380Y-113311285D01*
X112330333Y-113644619D01*
X112330333Y-113501761D01*
X112377952Y-113406523D01*
X112425571Y-113358904D01*
X112520809Y-113311285D01*
X112758904Y-113311285D01*
X112854142Y-113358904D01*
X112901761Y-113406523D01*
X112949380Y-113501761D01*
X112949380Y-113787476D01*
X112901761Y-113882714D01*
X112854142Y-113930333D01*
%TO.C,D1*%
X90653904Y-90710380D02*
X90653904Y-89710380D01*
X90892000Y-89710380D01*
X91034857Y-89758000D01*
X91130095Y-89853238D01*
X91177714Y-89948476D01*
X91225333Y-90138952D01*
X91225333Y-90281809D01*
X91177714Y-90472285D01*
X91130095Y-90567523D01*
X91034857Y-90662761D01*
X90892000Y-90710380D01*
X90653904Y-90710380D01*
X92177714Y-90710380D02*
X91606285Y-90710380D01*
X91892000Y-90710380D02*
X91892000Y-89710380D01*
X91796761Y-89853238D01*
X91701523Y-89948476D01*
X91606285Y-89996095D01*
X98750095Y-89590380D02*
X98750095Y-88590380D01*
X99321523Y-89590380D02*
X98892952Y-89018952D01*
X99321523Y-88590380D02*
X98750095Y-89161809D01*
%TO.C,C9*%
X101113642Y-112358666D02*
X101161261Y-112406285D01*
X101208880Y-112549142D01*
X101208880Y-112644380D01*
X101161261Y-112787238D01*
X101066023Y-112882476D01*
X100970785Y-112930095D01*
X100780309Y-112977714D01*
X100637452Y-112977714D01*
X100446976Y-112930095D01*
X100351738Y-112882476D01*
X100256500Y-112787238D01*
X100208880Y-112644380D01*
X100208880Y-112549142D01*
X100256500Y-112406285D01*
X100304119Y-112358666D01*
X101208880Y-111882476D02*
X101208880Y-111692000D01*
X101161261Y-111596761D01*
X101113642Y-111549142D01*
X100970785Y-111453904D01*
X100780309Y-111406285D01*
X100399357Y-111406285D01*
X100304119Y-111453904D01*
X100256500Y-111501523D01*
X100208880Y-111596761D01*
X100208880Y-111787238D01*
X100256500Y-111882476D01*
X100304119Y-111930095D01*
X100399357Y-111977714D01*
X100637452Y-111977714D01*
X100732690Y-111930095D01*
X100780309Y-111882476D01*
X100827928Y-111787238D01*
X100827928Y-111596761D01*
X100780309Y-111501523D01*
X100732690Y-111453904D01*
X100637452Y-111406285D01*
%TO.C,TP5*%
X87164380Y-131233904D02*
X87164380Y-130662476D01*
X88164380Y-130948190D02*
X87164380Y-130948190D01*
X88164380Y-130329142D02*
X87164380Y-130329142D01*
X87164380Y-129948190D01*
X87212000Y-129852952D01*
X87259619Y-129805333D01*
X87354857Y-129757714D01*
X87497714Y-129757714D01*
X87592952Y-129805333D01*
X87640571Y-129852952D01*
X87688190Y-129948190D01*
X87688190Y-130329142D01*
X87164380Y-128852952D02*
X87164380Y-129329142D01*
X87640571Y-129376761D01*
X87592952Y-129329142D01*
X87545333Y-129233904D01*
X87545333Y-128995809D01*
X87592952Y-128900571D01*
X87640571Y-128852952D01*
X87735809Y-128805333D01*
X87973904Y-128805333D01*
X88069142Y-128852952D01*
X88116761Y-128900571D01*
X88164380Y-128995809D01*
X88164380Y-129233904D01*
X88116761Y-129329142D01*
X88069142Y-129376761D01*
D11*
%TO.C,R6*%
X96578000Y-111464936D02*
X96578000Y-112919064D01*
X98398000Y-111464936D02*
X98398000Y-112919064D01*
%TO.C,C6*%
X128181000Y-117602252D02*
X128181000Y-116179748D01*
X126361000Y-117602252D02*
X126361000Y-116179748D01*
%TO.C,R2*%
X99414000Y-103844936D02*
X99414000Y-105299064D01*
X97594000Y-103844936D02*
X97594000Y-105299064D01*
%TO.C,C7*%
X122551000Y-109474252D02*
X122551000Y-108051748D01*
X124371000Y-109474252D02*
X124371000Y-108051748D01*
%TO.C,TP2*%
X101486000Y-99680000D02*
X99586000Y-99680000D01*
X99586000Y-99680000D02*
X99586000Y-97780000D01*
X101486000Y-97780000D02*
X101486000Y-99680000D01*
X99586000Y-97780000D02*
X101486000Y-97780000D01*
%TO.C,Q2*%
X94444000Y-130770000D02*
X95094000Y-130770000D01*
X94444000Y-127650000D02*
X92769000Y-127650000D01*
X94444000Y-130770000D02*
X93794000Y-130770000D01*
X94444000Y-127650000D02*
X95094000Y-127650000D01*
%TO.C,C1*%
X83412000Y-103860748D02*
X83412000Y-105283252D01*
X81592000Y-103860748D02*
X81592000Y-105283252D01*
%TO.C,TP3*%
X99332000Y-123434000D02*
X101232000Y-123434000D01*
X99332000Y-125334000D02*
X99332000Y-123434000D01*
X101232000Y-123434000D02*
X101232000Y-125334000D01*
X101232000Y-125334000D02*
X99332000Y-125334000D01*
%TO.C,C4*%
X108536000Y-91968000D02*
X108536000Y-94134000D01*
X109617000Y-92298000D02*
X109617000Y-94134000D01*
X108176000Y-91944000D02*
X108176000Y-98404000D01*
X110217000Y-92690000D02*
X110217000Y-94134000D01*
X110257000Y-92724000D02*
X110257000Y-94134000D01*
X110017000Y-92538000D02*
X110017000Y-94134000D01*
X110897000Y-93460000D02*
X110897000Y-96888000D01*
X109217000Y-96214000D02*
X109217000Y-98221000D01*
X110297000Y-96214000D02*
X110297000Y-97590000D01*
X108296000Y-91947000D02*
X108296000Y-98401000D01*
X109817000Y-92408000D02*
X109817000Y-94134000D01*
X110057000Y-92567000D02*
X110057000Y-94134000D01*
X108857000Y-92024000D02*
X108857000Y-94134000D01*
X108816000Y-96214000D02*
X108816000Y-98333000D01*
X110297000Y-92758000D02*
X110297000Y-94134000D01*
X110017000Y-96214000D02*
X110017000Y-97810000D01*
X111217000Y-94115000D02*
X111217000Y-96233000D01*
X109097000Y-92088000D02*
X109097000Y-94134000D01*
X110097000Y-96214000D02*
X110097000Y-97752000D01*
X110417000Y-96214000D02*
X110417000Y-97479000D01*
X109337000Y-96214000D02*
X109337000Y-98176000D01*
X109457000Y-96214000D02*
X109457000Y-98126000D01*
X111377000Y-94772000D02*
X111377000Y-95576000D01*
X108336000Y-91950000D02*
X108336000Y-98398000D01*
X109257000Y-96214000D02*
X109257000Y-98207000D01*
X110057000Y-96214000D02*
X110057000Y-97781000D01*
X109697000Y-96214000D02*
X109697000Y-98008000D01*
X110337000Y-92794000D02*
X110337000Y-94134000D01*
X108776000Y-96214000D02*
X108776000Y-98341000D01*
X110537000Y-92992000D02*
X110537000Y-97356000D01*
X108696000Y-96214000D02*
X108696000Y-98356000D01*
X110977000Y-93593000D02*
X110977000Y-96755000D01*
X108216000Y-91944000D02*
X108216000Y-98404000D01*
X108776000Y-92007000D02*
X108776000Y-94134000D01*
X110217000Y-96214000D02*
X110217000Y-97658000D01*
X108736000Y-96214000D02*
X108736000Y-98349000D01*
X109017000Y-96214000D02*
X109017000Y-98284000D01*
X111097000Y-93824000D02*
X111097000Y-96524000D01*
X109897000Y-92458000D02*
X109897000Y-94134000D01*
X109497000Y-96214000D02*
X109497000Y-98108000D01*
X109217000Y-92127000D02*
X109217000Y-94134000D01*
X110697000Y-93179000D02*
X110697000Y-97169000D01*
X111057000Y-93742000D02*
X111057000Y-96606000D01*
X109977000Y-92510000D02*
X109977000Y-94134000D01*
X109177000Y-96214000D02*
X109177000Y-98235000D01*
X110377000Y-96214000D02*
X110377000Y-97517000D01*
X108136000Y-91944000D02*
X108136000Y-98404000D01*
X109497000Y-92240000D02*
X109497000Y-94134000D01*
X109377000Y-92188000D02*
X109377000Y-94134000D01*
X108897000Y-92033000D02*
X108897000Y-94134000D01*
X109297000Y-92156000D02*
X109297000Y-94134000D01*
X111297000Y-94372000D02*
X111297000Y-95976000D01*
X108937000Y-96214000D02*
X108937000Y-98305000D01*
X104950759Y-93020000D02*
X104950759Y-93650000D01*
X111017000Y-93665000D02*
X111017000Y-96683000D01*
X109137000Y-96214000D02*
X109137000Y-98248000D01*
X109817000Y-96214000D02*
X109817000Y-97940000D01*
X109057000Y-96214000D02*
X109057000Y-98272000D01*
X110137000Y-96214000D02*
X110137000Y-97722000D01*
X108937000Y-92043000D02*
X108937000Y-94134000D01*
X108816000Y-92015000D02*
X108816000Y-94134000D01*
X110417000Y-92869000D02*
X110417000Y-94134000D01*
X108897000Y-96214000D02*
X108897000Y-98315000D01*
X109097000Y-96214000D02*
X109097000Y-98260000D01*
X108416000Y-96214000D02*
X108416000Y-98392000D01*
X108376000Y-96214000D02*
X108376000Y-98396000D01*
X109337000Y-92172000D02*
X109337000Y-94134000D01*
X109537000Y-92258000D02*
X109537000Y-94134000D01*
X110177000Y-92658000D02*
X110177000Y-94134000D01*
X110377000Y-92831000D02*
X110377000Y-94134000D01*
X110177000Y-96214000D02*
X110177000Y-97690000D01*
X109137000Y-92100000D02*
X109137000Y-94134000D01*
X110777000Y-93284000D02*
X110777000Y-97064000D01*
X110937000Y-93524000D02*
X110937000Y-96824000D01*
X109457000Y-92222000D02*
X109457000Y-94134000D01*
X110257000Y-96214000D02*
X110257000Y-97624000D01*
X109857000Y-96214000D02*
X109857000Y-97916000D01*
X108977000Y-92053000D02*
X108977000Y-94134000D01*
X110097000Y-92596000D02*
X110097000Y-94134000D01*
X108496000Y-96214000D02*
X108496000Y-98385000D01*
X109257000Y-92141000D02*
X109257000Y-94134000D01*
X110497000Y-92950000D02*
X110497000Y-97398000D01*
X109057000Y-92076000D02*
X109057000Y-94134000D01*
X109937000Y-96214000D02*
X109937000Y-97864000D01*
X109417000Y-92204000D02*
X109417000Y-94134000D01*
X110577000Y-93037000D02*
X110577000Y-97311000D01*
X109937000Y-92484000D02*
X109937000Y-94134000D01*
X108416000Y-91956000D02*
X108416000Y-94134000D01*
X108536000Y-96214000D02*
X108536000Y-98380000D01*
X110857000Y-93398000D02*
X110857000Y-96950000D01*
X109577000Y-96214000D02*
X109577000Y-98070000D01*
X108977000Y-96214000D02*
X108977000Y-98295000D01*
X110617000Y-93082000D02*
X110617000Y-97266000D01*
X110137000Y-92626000D02*
X110137000Y-94134000D01*
X108857000Y-96214000D02*
X108857000Y-98324000D01*
X109857000Y-92432000D02*
X109857000Y-94134000D01*
X110817000Y-93340000D02*
X110817000Y-97008000D01*
X109017000Y-92064000D02*
X109017000Y-94134000D01*
X108656000Y-91985000D02*
X108656000Y-94134000D01*
X109617000Y-96214000D02*
X109617000Y-98050000D01*
X109377000Y-96214000D02*
X109377000Y-98160000D01*
X108656000Y-96214000D02*
X108656000Y-98363000D01*
X109777000Y-96214000D02*
X109777000Y-97964000D01*
X109737000Y-96214000D02*
X109737000Y-97986000D01*
X109537000Y-96214000D02*
X109537000Y-98090000D01*
X109657000Y-92318000D02*
X109657000Y-94134000D01*
X111177000Y-94009000D02*
X111177000Y-96339000D01*
X108456000Y-91959000D02*
X108456000Y-94134000D01*
X108376000Y-91952000D02*
X108376000Y-94134000D01*
X109897000Y-96214000D02*
X109897000Y-97890000D01*
X109697000Y-92340000D02*
X109697000Y-94134000D01*
X108456000Y-96214000D02*
X108456000Y-98389000D01*
X108696000Y-91992000D02*
X108696000Y-94134000D01*
X111137000Y-93912000D02*
X111137000Y-96436000D01*
X108576000Y-91973000D02*
X108576000Y-94134000D01*
X108576000Y-96214000D02*
X108576000Y-98375000D01*
X108616000Y-96214000D02*
X108616000Y-98369000D01*
X104635759Y-93335000D02*
X105265759Y-93335000D01*
X109977000Y-96214000D02*
X109977000Y-97838000D01*
X110457000Y-92909000D02*
X110457000Y-97439000D01*
X109577000Y-92278000D02*
X109577000Y-94134000D01*
X111257000Y-94234000D02*
X111257000Y-96114000D01*
X110337000Y-96214000D02*
X110337000Y-97554000D01*
X109417000Y-96214000D02*
X109417000Y-98144000D01*
X108736000Y-91999000D02*
X108736000Y-94134000D01*
X108496000Y-91963000D02*
X108496000Y-94134000D01*
X111337000Y-94541000D02*
X111337000Y-95807000D01*
X108256000Y-91946000D02*
X108256000Y-98402000D01*
X110657000Y-93130000D02*
X110657000Y-97218000D01*
X108616000Y-91979000D02*
X108616000Y-94134000D01*
X109177000Y-92113000D02*
X109177000Y-94134000D01*
X109737000Y-92362000D02*
X109737000Y-94134000D01*
X109657000Y-96214000D02*
X109657000Y-98030000D01*
X109777000Y-92384000D02*
X109777000Y-94134000D01*
X109297000Y-96214000D02*
X109297000Y-98192000D01*
X110737000Y-93230000D02*
X110737000Y-97118000D01*
X111406000Y-95174000D02*
G75*
G03*
X111406000Y-95174000I-3270000J0D01*
G01*
%TO.C,R8*%
X84499064Y-130374000D02*
X83044936Y-130374000D01*
X84499064Y-128554000D02*
X83044936Y-128554000D01*
%TO.C,C8*%
X126559748Y-112721000D02*
X127982252Y-112721000D01*
X126559748Y-110901000D02*
X127982252Y-110901000D01*
%TO.C,R4*%
X122160936Y-120045000D02*
X123615064Y-120045000D01*
X122160936Y-121865000D02*
X123615064Y-121865000D01*
%TO.C,Q1*%
X99520000Y-128666000D02*
X97845000Y-128666000D01*
X99520000Y-128666000D02*
X100170000Y-128666000D01*
X99520000Y-131786000D02*
X100170000Y-131786000D01*
X99520000Y-131786000D02*
X98870000Y-131786000D01*
%TO.C,R7*%
X94334000Y-119592936D02*
X94334000Y-121047064D01*
X92514000Y-119592936D02*
X92514000Y-121047064D01*
%TO.C,C10*%
X105666748Y-114076000D02*
X107089252Y-114076000D01*
X105666748Y-115896000D02*
X107089252Y-115896000D01*
%TO.C,C3*%
X94334000Y-103860748D02*
X94334000Y-105283252D01*
X92514000Y-103860748D02*
X92514000Y-105283252D01*
%TO.C,D2*%
X118554000Y-86538000D02*
X117094000Y-86538000D01*
X117094000Y-83768000D02*
X107854000Y-83768000D01*
X109324000Y-83768000D02*
X109324000Y-89308000D01*
X117094000Y-89308000D02*
X117094000Y-83768000D01*
X109444000Y-83768000D02*
X109444000Y-89308000D01*
X109204000Y-83768000D02*
X109204000Y-89308000D01*
X106394000Y-86538000D02*
X107854000Y-86538000D01*
X107854000Y-83768000D02*
X107854000Y-89308000D01*
X107854000Y-89308000D02*
X117094000Y-89308000D01*
%TO.C,R1*%
X96112000Y-98002936D02*
X96112000Y-99457064D01*
X94292000Y-98002936D02*
X94292000Y-99457064D01*
%TO.C,RV1*%
X83262000Y-116316000D02*
X86822000Y-116316000D01*
X81172000Y-113656000D02*
X84282000Y-113656000D01*
X85802000Y-113656000D02*
X88912000Y-113656000D01*
X81172000Y-116316000D02*
X81742000Y-116316000D01*
X88342000Y-113656000D02*
X88912000Y-113656000D01*
X81742000Y-116316000D02*
X81742000Y-117836000D01*
X88912000Y-116316000D02*
X88912000Y-113656000D01*
X81172000Y-116316000D02*
X81172000Y-113656000D01*
%TO.C,U1*%
X120921000Y-116657000D02*
X118971000Y-116657000D01*
X120921000Y-111537000D02*
X122871000Y-111537000D01*
X120921000Y-116657000D02*
X122871000Y-116657000D01*
X120921000Y-111537000D02*
X117471000Y-111537000D01*
%TO.C,C2*%
X86926000Y-103860748D02*
X86926000Y-105283252D01*
X88746000Y-103860748D02*
X88746000Y-105283252D01*
%TO.C,C11*%
X94389252Y-113822000D02*
X92966748Y-113822000D01*
X94389252Y-115642000D02*
X92966748Y-115642000D01*
%TO.C,Q3*%
X110320000Y-130880000D02*
X110320000Y-132140000D01*
X106560000Y-137700000D02*
X110320000Y-137700000D01*
X104310000Y-130880000D02*
X110320000Y-130880000D01*
X110320000Y-137700000D02*
X110320000Y-136440000D01*
%TO.C,C5*%
X97691252Y-91216000D02*
X96268748Y-91216000D01*
X97691252Y-93036000D02*
X96268748Y-93036000D01*
%TO.C,TP1*%
X113367000Y-120127000D02*
X113367000Y-118227000D01*
X113367000Y-118227000D02*
X115267000Y-118227000D01*
X115267000Y-118227000D02*
X115267000Y-120127000D01*
X115267000Y-120127000D02*
X113367000Y-120127000D01*
%TO.C,TP4*%
X91580000Y-107940000D02*
X91580000Y-109840000D01*
X89680000Y-107940000D02*
X91580000Y-107940000D01*
X89680000Y-109840000D02*
X89680000Y-107940000D01*
X91580000Y-109840000D02*
X89680000Y-109840000D01*
%TO.C,U2*%
X100066500Y-114966000D02*
X96616500Y-114966000D01*
X100066500Y-114966000D02*
X102016500Y-114966000D01*
X100066500Y-120086000D02*
X102016500Y-120086000D01*
X100066500Y-120086000D02*
X98116500Y-120086000D01*
%TO.C,R5*%
X122160936Y-125379000D02*
X123615064Y-125379000D01*
X122160936Y-127199000D02*
X123615064Y-127199000D01*
%TO.C,R3*%
X115227000Y-114824064D02*
X115227000Y-113369936D01*
X113407000Y-114824064D02*
X113407000Y-113369936D01*
%TO.C,D1*%
X94837000Y-89258000D02*
X94837000Y-83818000D01*
X94597000Y-89258000D02*
X94597000Y-83818000D01*
X94717000Y-89258000D02*
X94717000Y-83818000D01*
X96262000Y-83818000D02*
X86522000Y-83818000D01*
X86522000Y-89258000D02*
X96262000Y-89258000D01*
X86522000Y-83818000D02*
X86522000Y-89258000D01*
X85612000Y-86538000D02*
X86522000Y-86538000D01*
X96262000Y-89258000D02*
X96262000Y-83818000D01*
X97172000Y-86538000D02*
X96262000Y-86538000D01*
%TO.C,C9*%
X103516500Y-112903252D02*
X103516500Y-111480748D01*
X101696500Y-112903252D02*
X101696500Y-111480748D01*
%TO.C,TP5*%
X90310000Y-129022000D02*
X90310000Y-130922000D01*
X88410000Y-129022000D02*
X90310000Y-129022000D01*
X90310000Y-130922000D02*
X88410000Y-130922000D01*
X88410000Y-130922000D02*
X88410000Y-129022000D01*
%TD*%
M02*
