%TF.GenerationSoftware,KiCad,Pcbnew,(6.0.1-0)*%
%TF.CreationDate,2022-01-18T10:49:35+01:00*%
%TF.ProjectId,pwm_driver,70776d5f-6472-4697-9665-722e6b696361,1*%
%TF.SameCoordinates,Original*%
%TF.FileFunction,Copper,L2,Bot*%
%TF.FilePolarity,Positive*%
%FSLAX46Y46*%
G04 Gerber Fmt 4.6, Leading zero omitted, Abs format (unit mm)*
G04 Created by KiCad (PCBNEW (6.0.1-0)) date 2022-01-18 10:49:35*
%MOMM*%
%LPD*%
G01*
G04 APERTURE LIST*
%TA.AperFunction,ComponentPad*%
%ADD10R,1.600000X1.600000*%
%TD*%
%TA.AperFunction,ComponentPad*%
%ADD11C,1.600000*%
%TD*%
%TA.AperFunction,ComponentPad*%
%ADD12R,2.600000X2.600000*%
%TD*%
%TA.AperFunction,ComponentPad*%
%ADD13O,2.600000X2.600000*%
%TD*%
%TA.AperFunction,ComponentPad*%
%ADD14R,3.200000X3.200000*%
%TD*%
%TA.AperFunction,ComponentPad*%
%ADD15O,3.200000X3.200000*%
%TD*%
%TA.AperFunction,ViaPad*%
%ADD16C,0.685800*%
%TD*%
G04 APERTURE END LIST*
D10*
%TO.P,C4,1*%
%TO.N,VCC*%
X106886000Y-95174000D03*
D11*
%TO.P,C4,2*%
%TO.N,GND*%
X109386000Y-95174000D03*
%TD*%
D12*
%TO.P,D2,1,A1*%
%TO.N,VCC*%
X104854000Y-86538000D03*
D13*
%TO.P,D2,2,A2*%
%TO.N,GND*%
X120094000Y-86538000D03*
%TD*%
D14*
%TO.P,D1,1,K*%
%TO.N,VCC*%
X99012000Y-86538000D03*
D15*
%TO.P,D1,2,A*%
%TO.N,/U_{In}*%
X83772000Y-86538000D03*
%TD*%
D16*
%TO.N,GND*%
X121110000Y-134036000D03*
X104854000Y-118034000D03*
X103076000Y-129210000D03*
X108156000Y-129210000D03*
X123904000Y-134036000D03*
X109680000Y-114986000D03*
X117300000Y-91110000D03*
X126952000Y-134036000D03*
X126952000Y-131496000D03*
X116538000Y-116510000D03*
X95456000Y-119050000D03*
X115522000Y-131496000D03*
X98250000Y-122352000D03*
X110950000Y-118034000D03*
X86820000Y-111430000D03*
X117300000Y-102540000D03*
X85296000Y-117272000D03*
X76914000Y-115494000D03*
X88090000Y-136830000D03*
X119332000Y-120574000D03*
X106886000Y-110414000D03*
X90630000Y-104826000D03*
X108156000Y-126924000D03*
X110950000Y-110414000D03*
X92154000Y-96952000D03*
X111458000Y-99238000D03*
X120348000Y-102540000D03*
X126952000Y-128702000D03*
X100790000Y-136830000D03*
X123396000Y-99238000D03*
X118062000Y-119304000D03*
X122888000Y-123876000D03*
X90630000Y-117272000D03*
X121110000Y-131496000D03*
X110950000Y-121082000D03*
X116792000Y-118034000D03*
X118316000Y-131496000D03*
X97996000Y-108382000D03*
X95710000Y-110668000D03*
X96980000Y-129210000D03*
X106886000Y-118034000D03*
X85296000Y-118796000D03*
X103076000Y-126924000D03*
X118316000Y-136576000D03*
X76914000Y-126162000D03*
X122888000Y-118034000D03*
X83264000Y-94158000D03*
X94948000Y-94158000D03*
X95964000Y-106604000D03*
X92662000Y-109144000D03*
X90376000Y-136830000D03*
X92154000Y-91364000D03*
X123396000Y-96444000D03*
X106886000Y-121082000D03*
X105616000Y-126924000D03*
X126444000Y-96444000D03*
X114252000Y-91110000D03*
X97996000Y-136830000D03*
X76914000Y-129972000D03*
X94186000Y-112192000D03*
X115014000Y-110414000D03*
X90630000Y-112700000D03*
X83010000Y-110668000D03*
X120348000Y-96444000D03*
X125936000Y-122606000D03*
X110950000Y-114478000D03*
X86058000Y-91364000D03*
X126952000Y-121336000D03*
X83264000Y-91364000D03*
X120348000Y-93904000D03*
X100028000Y-116256000D03*
X85296000Y-115748000D03*
X111458000Y-91110000D03*
X85042000Y-108382000D03*
X88090000Y-111430000D03*
X80216000Y-96952000D03*
X76914000Y-122352000D03*
X125174000Y-118034000D03*
X118316000Y-134036000D03*
X126952000Y-136576000D03*
X89106000Y-91364000D03*
X100028000Y-118034000D03*
X96726000Y-121082000D03*
X100028000Y-114732000D03*
X108918000Y-112446000D03*
X120348000Y-91110000D03*
X108156000Y-136576000D03*
X81232000Y-126162000D03*
X94186000Y-110668000D03*
X89360000Y-111430000D03*
X124666000Y-123876000D03*
X95964000Y-104826000D03*
X100028000Y-113208000D03*
X100536000Y-108382000D03*
X83264000Y-96952000D03*
X85042000Y-104826000D03*
X88090000Y-110160000D03*
X123904000Y-131496000D03*
X76914000Y-112446000D03*
X120348000Y-99238000D03*
X105616000Y-129210000D03*
X76914000Y-109398000D03*
X90630000Y-118796000D03*
X83010000Y-108382000D03*
X123904000Y-136576000D03*
X94186000Y-109144000D03*
X92154000Y-94158000D03*
X76914000Y-118796000D03*
X119332000Y-118034000D03*
X110950000Y-124130000D03*
X76914000Y-96952000D03*
X115522000Y-136576000D03*
X85042000Y-106604000D03*
X104854000Y-119558000D03*
X108156000Y-132004000D03*
X92662000Y-136830000D03*
X95456000Y-136830000D03*
X115522000Y-134036000D03*
X95710000Y-112192000D03*
X121110000Y-136576000D03*
X81232000Y-122352000D03*
%TD*%
%TA.AperFunction,Conductor*%
%TO.N,GND*%
G36*
X129434121Y-82345002D02*
G01*
X129480614Y-82398658D01*
X129492000Y-82451000D01*
X129492000Y-99366000D01*
X129471998Y-99434121D01*
X129418342Y-99480614D01*
X129366000Y-99492000D01*
X126748207Y-99492000D01*
X126727303Y-99490254D01*
X126718737Y-99488813D01*
X126707539Y-99486929D01*
X126701349Y-99486853D01*
X126699864Y-99486835D01*
X126699859Y-99486835D01*
X126695000Y-99486776D01*
X126690187Y-99487465D01*
X126685324Y-99487782D01*
X126685321Y-99487737D01*
X126682620Y-99487997D01*
X126436503Y-99500088D01*
X126322919Y-99505668D01*
X126322915Y-99505668D01*
X126319829Y-99505820D01*
X126200347Y-99523543D01*
X125951336Y-99560480D01*
X125951332Y-99560481D01*
X125948270Y-99560935D01*
X125945271Y-99561686D01*
X125945267Y-99561687D01*
X125764468Y-99606976D01*
X125583903Y-99652205D01*
X125581006Y-99653242D01*
X125580998Y-99653244D01*
X125420813Y-99710560D01*
X125230237Y-99778749D01*
X124890677Y-99939348D01*
X124888035Y-99940931D01*
X124888036Y-99940931D01*
X124571143Y-100130869D01*
X124571134Y-100130875D01*
X124568493Y-100132458D01*
X124566008Y-100134301D01*
X124331793Y-100308007D01*
X124266789Y-100356217D01*
X123988470Y-100608470D01*
X123736217Y-100886789D01*
X123512458Y-101188493D01*
X123510875Y-101191134D01*
X123510869Y-101191143D01*
X123392446Y-101388720D01*
X123319348Y-101510677D01*
X123158749Y-101850237D01*
X123032205Y-102203903D01*
X122940935Y-102568270D01*
X122885820Y-102939829D01*
X122867389Y-103315000D01*
X122885820Y-103690171D01*
X122940935Y-104061730D01*
X123032205Y-104426097D01*
X123158749Y-104779763D01*
X123319348Y-105119323D01*
X123320931Y-105121964D01*
X123510869Y-105438857D01*
X123510875Y-105438866D01*
X123512458Y-105441507D01*
X123736217Y-105743211D01*
X123988470Y-106021530D01*
X124266789Y-106273783D01*
X124269275Y-106275627D01*
X124269279Y-106275630D01*
X124456830Y-106414727D01*
X124568493Y-106497542D01*
X124571134Y-106499125D01*
X124571143Y-106499131D01*
X124868448Y-106677328D01*
X124890677Y-106690652D01*
X125230237Y-106851251D01*
X125420813Y-106919440D01*
X125580998Y-106976756D01*
X125581006Y-106976758D01*
X125583903Y-106977795D01*
X125764468Y-107023024D01*
X125945267Y-107068313D01*
X125945271Y-107068314D01*
X125948270Y-107069065D01*
X125951332Y-107069519D01*
X125951336Y-107069520D01*
X126118537Y-107094321D01*
X126319829Y-107124180D01*
X126322911Y-107124331D01*
X126322917Y-107124332D01*
X126666013Y-107141187D01*
X126672801Y-107141922D01*
X126672809Y-107141829D01*
X126677669Y-107142265D01*
X126682461Y-107143071D01*
X126688700Y-107143147D01*
X126690141Y-107143165D01*
X126690145Y-107143165D01*
X126695000Y-107143224D01*
X126722588Y-107139273D01*
X126740451Y-107138000D01*
X129366000Y-107138000D01*
X129434121Y-107158002D01*
X129480614Y-107211658D01*
X129492000Y-107264000D01*
X129492000Y-138843000D01*
X129471998Y-138911121D01*
X129418342Y-138957614D01*
X129366000Y-138969000D01*
X74024000Y-138969000D01*
X73955879Y-138948998D01*
X73909386Y-138895342D01*
X73898000Y-138843000D01*
X73898000Y-124779703D01*
X85585743Y-124779703D01*
X85623268Y-125064734D01*
X85699129Y-125342036D01*
X85811923Y-125606476D01*
X85959561Y-125853161D01*
X86139313Y-126077528D01*
X86347851Y-126275423D01*
X86581317Y-126443186D01*
X86585112Y-126445195D01*
X86585113Y-126445196D01*
X86606869Y-126456715D01*
X86835392Y-126577712D01*
X87105373Y-126676511D01*
X87386264Y-126737755D01*
X87414841Y-126740004D01*
X87609282Y-126755307D01*
X87609291Y-126755307D01*
X87611739Y-126755500D01*
X87767271Y-126755500D01*
X87769407Y-126755354D01*
X87769418Y-126755354D01*
X87977548Y-126741165D01*
X87977554Y-126741164D01*
X87981825Y-126740873D01*
X87986020Y-126740004D01*
X87986022Y-126740004D01*
X88122584Y-126711723D01*
X88263342Y-126682574D01*
X88534343Y-126586607D01*
X88789812Y-126454750D01*
X88793313Y-126452289D01*
X88793317Y-126452287D01*
X88907418Y-126372095D01*
X89025023Y-126289441D01*
X89235622Y-126093740D01*
X89417713Y-125871268D01*
X89567927Y-125626142D01*
X89683483Y-125362898D01*
X89762244Y-125086406D01*
X89802751Y-124801784D01*
X89802845Y-124783951D01*
X89802867Y-124779703D01*
X113585743Y-124779703D01*
X113623268Y-125064734D01*
X113699129Y-125342036D01*
X113811923Y-125606476D01*
X113959561Y-125853161D01*
X114139313Y-126077528D01*
X114347851Y-126275423D01*
X114581317Y-126443186D01*
X114585112Y-126445195D01*
X114585113Y-126445196D01*
X114606869Y-126456715D01*
X114835392Y-126577712D01*
X115105373Y-126676511D01*
X115386264Y-126737755D01*
X115414841Y-126740004D01*
X115609282Y-126755307D01*
X115609291Y-126755307D01*
X115611739Y-126755500D01*
X115767271Y-126755500D01*
X115769407Y-126755354D01*
X115769418Y-126755354D01*
X115977548Y-126741165D01*
X115977554Y-126741164D01*
X115981825Y-126740873D01*
X115986020Y-126740004D01*
X115986022Y-126740004D01*
X116122584Y-126711723D01*
X116263342Y-126682574D01*
X116534343Y-126586607D01*
X116789812Y-126454750D01*
X116793313Y-126452289D01*
X116793317Y-126452287D01*
X116907418Y-126372095D01*
X117025023Y-126289441D01*
X117235622Y-126093740D01*
X117417713Y-125871268D01*
X117567927Y-125626142D01*
X117683483Y-125362898D01*
X117762244Y-125086406D01*
X117802751Y-124801784D01*
X117802845Y-124783951D01*
X117804235Y-124518583D01*
X117804235Y-124518576D01*
X117804257Y-124514297D01*
X117766732Y-124229266D01*
X117690871Y-123951964D01*
X117578077Y-123687524D01*
X117430439Y-123440839D01*
X117250687Y-123216472D01*
X117042149Y-123018577D01*
X116808683Y-122850814D01*
X116786843Y-122839250D01*
X116763654Y-122826972D01*
X116554608Y-122716288D01*
X116284627Y-122617489D01*
X116003736Y-122556245D01*
X115972685Y-122553801D01*
X115780718Y-122538693D01*
X115780709Y-122538693D01*
X115778261Y-122538500D01*
X115622729Y-122538500D01*
X115620593Y-122538646D01*
X115620582Y-122538646D01*
X115412452Y-122552835D01*
X115412446Y-122552836D01*
X115408175Y-122553127D01*
X115403980Y-122553996D01*
X115403978Y-122553996D01*
X115267416Y-122582277D01*
X115126658Y-122611426D01*
X114855657Y-122707393D01*
X114600188Y-122839250D01*
X114596687Y-122841711D01*
X114596683Y-122841713D01*
X114586594Y-122848804D01*
X114364977Y-123004559D01*
X114154378Y-123200260D01*
X113972287Y-123422732D01*
X113822073Y-123667858D01*
X113706517Y-123931102D01*
X113627756Y-124207594D01*
X113587249Y-124492216D01*
X113587227Y-124496505D01*
X113587226Y-124496512D01*
X113585765Y-124775417D01*
X113585743Y-124779703D01*
X89802867Y-124779703D01*
X89804235Y-124518583D01*
X89804235Y-124518576D01*
X89804257Y-124514297D01*
X89766732Y-124229266D01*
X89690871Y-123951964D01*
X89578077Y-123687524D01*
X89430439Y-123440839D01*
X89250687Y-123216472D01*
X89042149Y-123018577D01*
X88808683Y-122850814D01*
X88786843Y-122839250D01*
X88763654Y-122826972D01*
X88554608Y-122716288D01*
X88284627Y-122617489D01*
X88003736Y-122556245D01*
X87972685Y-122553801D01*
X87780718Y-122538693D01*
X87780709Y-122538693D01*
X87778261Y-122538500D01*
X87622729Y-122538500D01*
X87620593Y-122538646D01*
X87620582Y-122538646D01*
X87412452Y-122552835D01*
X87412446Y-122552836D01*
X87408175Y-122553127D01*
X87403980Y-122553996D01*
X87403978Y-122553996D01*
X87267416Y-122582277D01*
X87126658Y-122611426D01*
X86855657Y-122707393D01*
X86600188Y-122839250D01*
X86596687Y-122841711D01*
X86596683Y-122841713D01*
X86586594Y-122848804D01*
X86364977Y-123004559D01*
X86154378Y-123200260D01*
X85972287Y-123422732D01*
X85822073Y-123667858D01*
X85706517Y-123931102D01*
X85627756Y-124207594D01*
X85587249Y-124492216D01*
X85587227Y-124496505D01*
X85587226Y-124496512D01*
X85585765Y-124775417D01*
X85585743Y-124779703D01*
X73898000Y-124779703D01*
X73898000Y-107264000D01*
X73918002Y-107195879D01*
X73971658Y-107149386D01*
X74024000Y-107138000D01*
X76641793Y-107138000D01*
X76662697Y-107139746D01*
X76682461Y-107143071D01*
X76688651Y-107143147D01*
X76690136Y-107143165D01*
X76690141Y-107143165D01*
X76695000Y-107143224D01*
X76699813Y-107142535D01*
X76704676Y-107142218D01*
X76704679Y-107142263D01*
X76707380Y-107142003D01*
X76953497Y-107129912D01*
X77067081Y-107124332D01*
X77067085Y-107124332D01*
X77070171Y-107124180D01*
X77189653Y-107106457D01*
X77438664Y-107069520D01*
X77438668Y-107069519D01*
X77441730Y-107069065D01*
X77444729Y-107068314D01*
X77444733Y-107068313D01*
X77625532Y-107023024D01*
X77806097Y-106977795D01*
X77808994Y-106976758D01*
X77809002Y-106976756D01*
X77969187Y-106919440D01*
X78159763Y-106851251D01*
X78499323Y-106690652D01*
X78521552Y-106677328D01*
X78818857Y-106499131D01*
X78818866Y-106499125D01*
X78821507Y-106497542D01*
X78933170Y-106414727D01*
X79120721Y-106275630D01*
X79120725Y-106275627D01*
X79123211Y-106273783D01*
X79401530Y-106021530D01*
X79653783Y-105743211D01*
X79877542Y-105441507D01*
X79879125Y-105438866D01*
X79879131Y-105438857D01*
X80069069Y-105121964D01*
X80070652Y-105119323D01*
X80231251Y-104779763D01*
X80357795Y-104426097D01*
X80449065Y-104061730D01*
X80504180Y-103690171D01*
X80522611Y-103315000D01*
X80504180Y-102939829D01*
X80449065Y-102568270D01*
X80357795Y-102203903D01*
X80231251Y-101850237D01*
X80070652Y-101510677D01*
X79997554Y-101388720D01*
X79879131Y-101191143D01*
X79879125Y-101191134D01*
X79877542Y-101188493D01*
X79653783Y-100886789D01*
X79401530Y-100608470D01*
X79123211Y-100356217D01*
X79058208Y-100308007D01*
X78823992Y-100134301D01*
X78821507Y-100132458D01*
X78818866Y-100130875D01*
X78818857Y-100130869D01*
X78501964Y-99940931D01*
X78501965Y-99940931D01*
X78499323Y-99939348D01*
X78159763Y-99778749D01*
X77969187Y-99710560D01*
X77809002Y-99653244D01*
X77808994Y-99653242D01*
X77806097Y-99652205D01*
X77625532Y-99606976D01*
X77444733Y-99561687D01*
X77444729Y-99561686D01*
X77441730Y-99560935D01*
X77438668Y-99560481D01*
X77438664Y-99560480D01*
X77271463Y-99535679D01*
X77070171Y-99505820D01*
X77067089Y-99505669D01*
X77067083Y-99505668D01*
X76723987Y-99488813D01*
X76717199Y-99488078D01*
X76717191Y-99488171D01*
X76712331Y-99487735D01*
X76707539Y-99486929D01*
X76701300Y-99486853D01*
X76699859Y-99486835D01*
X76699855Y-99486835D01*
X76695000Y-99486776D01*
X76670715Y-99490254D01*
X76667412Y-99490727D01*
X76649549Y-99492000D01*
X74024000Y-99492000D01*
X73955879Y-99471998D01*
X73909386Y-99418342D01*
X73898000Y-99366000D01*
X73898000Y-96779703D01*
X85585743Y-96779703D01*
X85623268Y-97064734D01*
X85699129Y-97342036D01*
X85811923Y-97606476D01*
X85959561Y-97853161D01*
X86139313Y-98077528D01*
X86347851Y-98275423D01*
X86581317Y-98443186D01*
X86585112Y-98445195D01*
X86585113Y-98445196D01*
X86606869Y-98456715D01*
X86835392Y-98577712D01*
X87105373Y-98676511D01*
X87386264Y-98737755D01*
X87414841Y-98740004D01*
X87609282Y-98755307D01*
X87609291Y-98755307D01*
X87611739Y-98755500D01*
X87767271Y-98755500D01*
X87769407Y-98755354D01*
X87769418Y-98755354D01*
X87977548Y-98741165D01*
X87977554Y-98741164D01*
X87981825Y-98740873D01*
X87986020Y-98740004D01*
X87986022Y-98740004D01*
X88122583Y-98711724D01*
X88263342Y-98682574D01*
X88534343Y-98586607D01*
X88789812Y-98454750D01*
X88793313Y-98452289D01*
X88793317Y-98452287D01*
X88907417Y-98372096D01*
X89025023Y-98289441D01*
X89235622Y-98093740D01*
X89417713Y-97871268D01*
X89567927Y-97626142D01*
X89683483Y-97362898D01*
X89762244Y-97086406D01*
X89802751Y-96801784D01*
X89802845Y-96783951D01*
X89802867Y-96779703D01*
X113585743Y-96779703D01*
X113623268Y-97064734D01*
X113699129Y-97342036D01*
X113811923Y-97606476D01*
X113959561Y-97853161D01*
X114139313Y-98077528D01*
X114347851Y-98275423D01*
X114581317Y-98443186D01*
X114585112Y-98445195D01*
X114585113Y-98445196D01*
X114606869Y-98456715D01*
X114835392Y-98577712D01*
X115105373Y-98676511D01*
X115386264Y-98737755D01*
X115414841Y-98740004D01*
X115609282Y-98755307D01*
X115609291Y-98755307D01*
X115611739Y-98755500D01*
X115767271Y-98755500D01*
X115769407Y-98755354D01*
X115769418Y-98755354D01*
X115977548Y-98741165D01*
X115977554Y-98741164D01*
X115981825Y-98740873D01*
X115986020Y-98740004D01*
X115986022Y-98740004D01*
X116122583Y-98711724D01*
X116263342Y-98682574D01*
X116534343Y-98586607D01*
X116789812Y-98454750D01*
X116793313Y-98452289D01*
X116793317Y-98452287D01*
X116907417Y-98372096D01*
X117025023Y-98289441D01*
X117235622Y-98093740D01*
X117417713Y-97871268D01*
X117567927Y-97626142D01*
X117683483Y-97362898D01*
X117762244Y-97086406D01*
X117802751Y-96801784D01*
X117802845Y-96783951D01*
X117804235Y-96518583D01*
X117804235Y-96518576D01*
X117804257Y-96514297D01*
X117798817Y-96472971D01*
X117780950Y-96337261D01*
X117766732Y-96229266D01*
X117690871Y-95951964D01*
X117578077Y-95687524D01*
X117493390Y-95546022D01*
X117432643Y-95444521D01*
X117432640Y-95444517D01*
X117430439Y-95440839D01*
X117250687Y-95216472D01*
X117042149Y-95018577D01*
X116808683Y-94850814D01*
X116786843Y-94839250D01*
X116716448Y-94801978D01*
X116554608Y-94716288D01*
X116284627Y-94617489D01*
X116003736Y-94556245D01*
X115972685Y-94553801D01*
X115780718Y-94538693D01*
X115780709Y-94538693D01*
X115778261Y-94538500D01*
X115622729Y-94538500D01*
X115620593Y-94538646D01*
X115620582Y-94538646D01*
X115412452Y-94552835D01*
X115412446Y-94552836D01*
X115408175Y-94553127D01*
X115403980Y-94553996D01*
X115403978Y-94553996D01*
X115267416Y-94582277D01*
X115126658Y-94611426D01*
X114855657Y-94707393D01*
X114600188Y-94839250D01*
X114596687Y-94841711D01*
X114596683Y-94841713D01*
X114586594Y-94848804D01*
X114364977Y-95004559D01*
X114349892Y-95018577D01*
X114168850Y-95186812D01*
X114154378Y-95200260D01*
X113972287Y-95422732D01*
X113822073Y-95667858D01*
X113820347Y-95671791D01*
X113820346Y-95671792D01*
X113716413Y-95908558D01*
X113706517Y-95931102D01*
X113627756Y-96207594D01*
X113618579Y-96272077D01*
X113590763Y-96467528D01*
X113587249Y-96492216D01*
X113587227Y-96496505D01*
X113587226Y-96496512D01*
X113585765Y-96775417D01*
X113585743Y-96779703D01*
X89802867Y-96779703D01*
X89804235Y-96518583D01*
X89804235Y-96518576D01*
X89804257Y-96514297D01*
X89798817Y-96472971D01*
X89780950Y-96337261D01*
X89766732Y-96229266D01*
X89710067Y-96022134D01*
X105577500Y-96022134D01*
X105584255Y-96084316D01*
X105635385Y-96220705D01*
X105722739Y-96337261D01*
X105839295Y-96424615D01*
X105975684Y-96475745D01*
X106037866Y-96482500D01*
X107734134Y-96482500D01*
X107796316Y-96475745D01*
X107932705Y-96424615D01*
X108049261Y-96337261D01*
X108107119Y-96260062D01*
X108664493Y-96260062D01*
X108673789Y-96272077D01*
X108724994Y-96307931D01*
X108734489Y-96313414D01*
X108931947Y-96405490D01*
X108942239Y-96409236D01*
X109152688Y-96465625D01*
X109163481Y-96467528D01*
X109380525Y-96486517D01*
X109391475Y-96486517D01*
X109608519Y-96467528D01*
X109619312Y-96465625D01*
X109829761Y-96409236D01*
X109840053Y-96405490D01*
X110037511Y-96313414D01*
X110047006Y-96307931D01*
X110099048Y-96271491D01*
X110107424Y-96261012D01*
X110100356Y-96247566D01*
X109398812Y-95546022D01*
X109384868Y-95538408D01*
X109383035Y-95538539D01*
X109376420Y-95542790D01*
X108670923Y-96248287D01*
X108664493Y-96260062D01*
X108107119Y-96260062D01*
X108136615Y-96220705D01*
X108187745Y-96084316D01*
X108194500Y-96022134D01*
X108194500Y-96018815D01*
X108218153Y-95951890D01*
X108264156Y-95916196D01*
X108263141Y-95914266D01*
X108274000Y-95908558D01*
X108274245Y-95908368D01*
X108274403Y-95908347D01*
X108312434Y-95888356D01*
X109013978Y-95186812D01*
X109020356Y-95175132D01*
X109750408Y-95175132D01*
X109750539Y-95176965D01*
X109754790Y-95183580D01*
X110460287Y-95889077D01*
X110472062Y-95895507D01*
X110484077Y-95886211D01*
X110519931Y-95835006D01*
X110525414Y-95825511D01*
X110617490Y-95628053D01*
X110621236Y-95617761D01*
X110677625Y-95407312D01*
X110679528Y-95396519D01*
X110698517Y-95179475D01*
X110698517Y-95168525D01*
X110679528Y-94951481D01*
X110677625Y-94940688D01*
X110621236Y-94730239D01*
X110617490Y-94719947D01*
X110525414Y-94522489D01*
X110519931Y-94512994D01*
X110483491Y-94460952D01*
X110473012Y-94452576D01*
X110459566Y-94459644D01*
X109758022Y-95161188D01*
X109750408Y-95175132D01*
X109020356Y-95175132D01*
X109021592Y-95172868D01*
X109021461Y-95171035D01*
X109017210Y-95164420D01*
X108311713Y-94458923D01*
X108269971Y-94436129D01*
X108259971Y-94433953D01*
X108209773Y-94383747D01*
X108194549Y-94330186D01*
X108194500Y-94329281D01*
X108194500Y-94325866D01*
X108187745Y-94263684D01*
X108136615Y-94127295D01*
X108106407Y-94086988D01*
X108664576Y-94086988D01*
X108671644Y-94100434D01*
X109373188Y-94801978D01*
X109387132Y-94809592D01*
X109388965Y-94809461D01*
X109395580Y-94805210D01*
X110101077Y-94099713D01*
X110107507Y-94087938D01*
X110098211Y-94075923D01*
X110047006Y-94040069D01*
X110037511Y-94034586D01*
X109840053Y-93942510D01*
X109829761Y-93938764D01*
X109619312Y-93882375D01*
X109608519Y-93880472D01*
X109391475Y-93861483D01*
X109380525Y-93861483D01*
X109163481Y-93880472D01*
X109152688Y-93882375D01*
X108942239Y-93938764D01*
X108931947Y-93942510D01*
X108734489Y-94034586D01*
X108724994Y-94040069D01*
X108672952Y-94076509D01*
X108664576Y-94086988D01*
X108106407Y-94086988D01*
X108049261Y-94010739D01*
X107932705Y-93923385D01*
X107796316Y-93872255D01*
X107734134Y-93865500D01*
X106037866Y-93865500D01*
X105975684Y-93872255D01*
X105839295Y-93923385D01*
X105722739Y-94010739D01*
X105635385Y-94127295D01*
X105584255Y-94263684D01*
X105577500Y-94325866D01*
X105577500Y-96022134D01*
X89710067Y-96022134D01*
X89690871Y-95951964D01*
X89578077Y-95687524D01*
X89493390Y-95546022D01*
X89432643Y-95444521D01*
X89432640Y-95444517D01*
X89430439Y-95440839D01*
X89250687Y-95216472D01*
X89042149Y-95018577D01*
X88808683Y-94850814D01*
X88786843Y-94839250D01*
X88716448Y-94801978D01*
X88554608Y-94716288D01*
X88284627Y-94617489D01*
X88003736Y-94556245D01*
X87972685Y-94553801D01*
X87780718Y-94538693D01*
X87780709Y-94538693D01*
X87778261Y-94538500D01*
X87622729Y-94538500D01*
X87620593Y-94538646D01*
X87620582Y-94538646D01*
X87412452Y-94552835D01*
X87412446Y-94552836D01*
X87408175Y-94553127D01*
X87403980Y-94553996D01*
X87403978Y-94553996D01*
X87267416Y-94582277D01*
X87126658Y-94611426D01*
X86855657Y-94707393D01*
X86600188Y-94839250D01*
X86596687Y-94841711D01*
X86596683Y-94841713D01*
X86586594Y-94848804D01*
X86364977Y-95004559D01*
X86349892Y-95018577D01*
X86168850Y-95186812D01*
X86154378Y-95200260D01*
X85972287Y-95422732D01*
X85822073Y-95667858D01*
X85820347Y-95671791D01*
X85820346Y-95671792D01*
X85716413Y-95908558D01*
X85706517Y-95931102D01*
X85627756Y-96207594D01*
X85618579Y-96272077D01*
X85590763Y-96467528D01*
X85587249Y-96492216D01*
X85587227Y-96496505D01*
X85587226Y-96496512D01*
X85585765Y-96775417D01*
X85585743Y-96779703D01*
X73898000Y-96779703D01*
X73898000Y-86515869D01*
X81658689Y-86515869D01*
X81675238Y-86802883D01*
X81676063Y-86807088D01*
X81676064Y-86807096D01*
X81693277Y-86894830D01*
X81730586Y-87084995D01*
X81731973Y-87089045D01*
X81731974Y-87089050D01*
X81822321Y-87352930D01*
X81823710Y-87356986D01*
X81952885Y-87613822D01*
X82115721Y-87850750D01*
X82118608Y-87853923D01*
X82118609Y-87853924D01*
X82204499Y-87948316D01*
X82309206Y-88063388D01*
X82312501Y-88066143D01*
X82312502Y-88066144D01*
X82520983Y-88240460D01*
X82529759Y-88247798D01*
X82773298Y-88400571D01*
X83035318Y-88518877D01*
X83039437Y-88520097D01*
X83306857Y-88599311D01*
X83306862Y-88599312D01*
X83310970Y-88600529D01*
X83315204Y-88601177D01*
X83315209Y-88601178D01*
X83549120Y-88636971D01*
X83595153Y-88644015D01*
X83741485Y-88646314D01*
X83878317Y-88648464D01*
X83878323Y-88648464D01*
X83882608Y-88648531D01*
X83886860Y-88648016D01*
X83886868Y-88648016D01*
X84163756Y-88614508D01*
X84163761Y-88614507D01*
X84168017Y-88613992D01*
X84264748Y-88588615D01*
X84441954Y-88542126D01*
X84441955Y-88542126D01*
X84446097Y-88541039D01*
X84711704Y-88431021D01*
X84902512Y-88319522D01*
X84956219Y-88288138D01*
X84956220Y-88288137D01*
X84959922Y-88285974D01*
X85087253Y-88186134D01*
X96903500Y-88186134D01*
X96910255Y-88248316D01*
X96961385Y-88384705D01*
X97048739Y-88501261D01*
X97165295Y-88588615D01*
X97301684Y-88639745D01*
X97363866Y-88646500D01*
X100660134Y-88646500D01*
X100722316Y-88639745D01*
X100858705Y-88588615D01*
X100975261Y-88501261D01*
X101062615Y-88384705D01*
X101113745Y-88248316D01*
X101120500Y-88186134D01*
X101120500Y-87886134D01*
X103045500Y-87886134D01*
X103052255Y-87948316D01*
X103103385Y-88084705D01*
X103190739Y-88201261D01*
X103307295Y-88288615D01*
X103443684Y-88339745D01*
X103505866Y-88346500D01*
X106202134Y-88346500D01*
X106264316Y-88339745D01*
X106400705Y-88288615D01*
X106517261Y-88201261D01*
X106604615Y-88084705D01*
X106655745Y-87948316D01*
X106662500Y-87886134D01*
X106662500Y-86811460D01*
X118304888Y-86811460D01*
X118345961Y-87017945D01*
X118348449Y-87026917D01*
X118436095Y-87271033D01*
X118439895Y-87279568D01*
X118562658Y-87508042D01*
X118567669Y-87515908D01*
X118722867Y-87723743D01*
X118728973Y-87730767D01*
X118913188Y-87913381D01*
X118920270Y-87919430D01*
X119129452Y-88072809D01*
X119137351Y-88077745D01*
X119366905Y-88198519D01*
X119375454Y-88202236D01*
X119620327Y-88287749D01*
X119629336Y-88290163D01*
X119822201Y-88326780D01*
X119835261Y-88325496D01*
X119839885Y-88310963D01*
X120348000Y-88310963D01*
X120352171Y-88325168D01*
X120364934Y-88327223D01*
X120419765Y-88321218D01*
X120428919Y-88319522D01*
X120679758Y-88253481D01*
X120688574Y-88250445D01*
X120926880Y-88148062D01*
X120935167Y-88143748D01*
X121155713Y-88007269D01*
X121163273Y-88001776D01*
X121361225Y-87834198D01*
X121367883Y-87827655D01*
X121538901Y-87632646D01*
X121544509Y-87625205D01*
X121684832Y-87407048D01*
X121689275Y-87398864D01*
X121795807Y-87162370D01*
X121798997Y-87153605D01*
X121869402Y-86903972D01*
X121871262Y-86894830D01*
X121882058Y-86809970D01*
X121879770Y-86795708D01*
X121866750Y-86792000D01*
X120366115Y-86792000D01*
X120350876Y-86796475D01*
X120349671Y-86797865D01*
X120348000Y-86805548D01*
X120348000Y-88310963D01*
X119839885Y-88310963D01*
X119840000Y-88310600D01*
X119840000Y-86810115D01*
X119835525Y-86794876D01*
X119834135Y-86793671D01*
X119826452Y-86792000D01*
X118319132Y-86792000D01*
X118306731Y-86795641D01*
X118304888Y-86811460D01*
X106662500Y-86811460D01*
X106662500Y-86265974D01*
X118304164Y-86265974D01*
X118306924Y-86280703D01*
X118319102Y-86284000D01*
X119821885Y-86284000D01*
X119837124Y-86279525D01*
X119838329Y-86278135D01*
X119840000Y-86270452D01*
X119840000Y-86265885D01*
X120348000Y-86265885D01*
X120352475Y-86281124D01*
X120353865Y-86282329D01*
X120361548Y-86284000D01*
X121870080Y-86284000D01*
X121884956Y-86279632D01*
X121886747Y-86269624D01*
X121886122Y-86265447D01*
X121828878Y-86012467D01*
X121826154Y-86003556D01*
X121732143Y-85761806D01*
X121728132Y-85753397D01*
X121599422Y-85528202D01*
X121594211Y-85520476D01*
X121433627Y-85316776D01*
X121427333Y-85309908D01*
X121238410Y-85132186D01*
X121231156Y-85126312D01*
X121018045Y-84978471D01*
X121010010Y-84973738D01*
X120777376Y-84859016D01*
X120768743Y-84855528D01*
X120521711Y-84776452D01*
X120512629Y-84774272D01*
X120365880Y-84750372D01*
X120352286Y-84752068D01*
X120348000Y-84766178D01*
X120348000Y-86265885D01*
X119840000Y-86265885D01*
X119840000Y-84765931D01*
X119835982Y-84752247D01*
X119822290Y-84750226D01*
X119721682Y-84763918D01*
X119712546Y-84765860D01*
X119463543Y-84838439D01*
X119454800Y-84841707D01*
X119219252Y-84950296D01*
X119211097Y-84954816D01*
X118994186Y-85097029D01*
X118986781Y-85102712D01*
X118793279Y-85275419D01*
X118786794Y-85282135D01*
X118620941Y-85481551D01*
X118615529Y-85489138D01*
X118480965Y-85710891D01*
X118476736Y-85719192D01*
X118376432Y-85958389D01*
X118373471Y-85967239D01*
X118309628Y-86218625D01*
X118308006Y-86227822D01*
X118304164Y-86265974D01*
X106662500Y-86265974D01*
X106662500Y-85189866D01*
X106655745Y-85127684D01*
X106604615Y-84991295D01*
X106517261Y-84874739D01*
X106400705Y-84787385D01*
X106264316Y-84736255D01*
X106202134Y-84729500D01*
X103505866Y-84729500D01*
X103443684Y-84736255D01*
X103307295Y-84787385D01*
X103190739Y-84874739D01*
X103103385Y-84991295D01*
X103052255Y-85127684D01*
X103045500Y-85189866D01*
X103045500Y-87886134D01*
X101120500Y-87886134D01*
X101120500Y-84889866D01*
X101113745Y-84827684D01*
X101062615Y-84691295D01*
X100975261Y-84574739D01*
X100858705Y-84487385D01*
X100722316Y-84436255D01*
X100660134Y-84429500D01*
X97363866Y-84429500D01*
X97301684Y-84436255D01*
X97165295Y-84487385D01*
X97048739Y-84574739D01*
X96961385Y-84691295D01*
X96910255Y-84827684D01*
X96903500Y-84889866D01*
X96903500Y-88186134D01*
X85087253Y-88186134D01*
X85186159Y-88108582D01*
X85209298Y-88084705D01*
X85316118Y-87974475D01*
X85386227Y-87902128D01*
X85388760Y-87898680D01*
X85388764Y-87898675D01*
X85553887Y-87673886D01*
X85556425Y-87670431D01*
X85693604Y-87417779D01*
X85749055Y-87271033D01*
X85793707Y-87152866D01*
X85793708Y-87152862D01*
X85795225Y-87148848D01*
X85859407Y-86868613D01*
X85865036Y-86805548D01*
X85884743Y-86584726D01*
X85884743Y-86584724D01*
X85884963Y-86582260D01*
X85885427Y-86538000D01*
X85867711Y-86278135D01*
X85866165Y-86255452D01*
X85866164Y-86255446D01*
X85865873Y-86251175D01*
X85861336Y-86229264D01*
X85808443Y-85973855D01*
X85807574Y-85969658D01*
X85711607Y-85698657D01*
X85619641Y-85520476D01*
X85581715Y-85446995D01*
X85581715Y-85446994D01*
X85579750Y-85443188D01*
X85566488Y-85424317D01*
X85416904Y-85211482D01*
X85414441Y-85207977D01*
X85218740Y-84997378D01*
X84996268Y-84815287D01*
X84751142Y-84665073D01*
X84733048Y-84657130D01*
X84491830Y-84551243D01*
X84487898Y-84549517D01*
X84461963Y-84542129D01*
X84215534Y-84471932D01*
X84215535Y-84471932D01*
X84211406Y-84470756D01*
X83988477Y-84439029D01*
X83931036Y-84430854D01*
X83931034Y-84430854D01*
X83926784Y-84430249D01*
X83922495Y-84430227D01*
X83922488Y-84430226D01*
X83643583Y-84428765D01*
X83643576Y-84428765D01*
X83639297Y-84428743D01*
X83635053Y-84429302D01*
X83635049Y-84429302D01*
X83509660Y-84445810D01*
X83354266Y-84466268D01*
X83350126Y-84467401D01*
X83350124Y-84467401D01*
X83288597Y-84484233D01*
X83076964Y-84542129D01*
X83073016Y-84543813D01*
X82816476Y-84653237D01*
X82816472Y-84653239D01*
X82812524Y-84654923D01*
X82763758Y-84684109D01*
X82569521Y-84800357D01*
X82569517Y-84800360D01*
X82565839Y-84802561D01*
X82341472Y-84982313D01*
X82143577Y-85190851D01*
X81975814Y-85424317D01*
X81841288Y-85678392D01*
X81742489Y-85948373D01*
X81681245Y-86229264D01*
X81658689Y-86515869D01*
X73898000Y-86515869D01*
X73898000Y-82451000D01*
X73918002Y-82382879D01*
X73971658Y-82336386D01*
X74024000Y-82325000D01*
X129366000Y-82325000D01*
X129434121Y-82345002D01*
G37*
%TD.AperFunction*%
%TD*%
M02*
